<?xml version="1.0" standalone="no"?>
<!DOCTYPE svg PUBLIC "-//W3C//DTD SVG 20010904//EN"
 "http://www.w3.org/TR/2001/REC-SVG-20010904/DTD/svg10.dtd">
<svg version="1.0" xmlns="http://www.w3.org/2000/svg"
 width="371.000000pt" height="406.000000pt" viewBox="0 0 371.000000 406.000000"
 preserveAspectRatio="xMidYMid meet">

<g transform="translate(0.000000,406.000000) scale(0.100000,-0.100000)"
fill="#000000" stroke="none">
<path d="M1707 4042 c-10 -10 -17 -20 -17 -23 0 -2 30 -4 67 -4 77 -1 214 -35
252 -63 16 -12 39 -18 61 -16 19 1 38 -3 42 -9 8 -14 66 -18 74 -6 15 25 21
66 10 66 -7 0 -44 12 -83 28 -68 26 -72 27 -104 11 -29 -15 -35 -15 -56 -1
-12 9 -23 20 -23 25 0 6 -43 10 -103 10 -88 0 -106 -3 -120 -18z"/>
<path d="M3399 4030 l54 -30 35 22 c20 13 49 21 71 20 20 -1 43 3 51 8 10 6
-32 10 -125 10 l-140 0 54 -30z"/>
<path d="M3666 4044 c-20 -19 -20 -34 -2 -34 28 0 46 12 46 31 0 23 -23 25
-44 3z"/>
<path d="M2260 4001 c-8 -6 -18 -7 -22 -5 -17 11 -7 -10 14 -28 35 -30 106 -6
78 27 -14 17 -47 20 -70 6z"/>
<path d="M6 3961 c-4 -7 -5 -15 -2 -18 9 -9 19 4 14 18 -4 11 -6 11 -12 0z"/>
<path d="M2120 3869 c-57 -22 -64 -23 -56 -3 5 13 1 15 -21 10 -56 -14 -139
-66 -104 -66 5 0 11 -8 15 -17 3 -10 8 -23 11 -29 3 -6 -2 -14 -11 -18 -12 -5
-15 -2 -10 9 3 10 2 14 -5 9 -6 -3 -8 -17 -4 -31 4 -18 2 -23 -6 -17 -8 4 -9
3 -5 -4 7 -12 -29 -92 -42 -92 -4 0 -8 -17 -9 -38 -1 -20 -8 -52 -16 -71 l-14
-33 -32 64 c-33 68 -40 94 -18 64 12 -17 14 -15 15 16 1 28 -2 34 -21 34 -12
0 -25 -4 -28 -9 -4 -6 -18 6 -30 26 -19 29 -55 57 -72 57 -2 0 -1 -15 1 -33 2
-21 -3 -39 -15 -53 -42 -48 -99 -57 -163 -24 -22 11 -45 20 -52 20 -7 0 -55
25 -105 55 -51 30 -96 55 -101 55 -4 0 -13 5 -19 11 -12 12 -173 86 -216 99
-20 7 -38 4 -63 -7 -38 -19 -41 -25 -19 -43 8 -7 30 -60 49 -119 42 -129 55
-156 122 -247 119 -161 274 -266 414 -280 43 -5 77 1 160 25 59 17 140 36 182
43 70 10 84 9 157 -11 86 -23 159 -21 210 5 14 8 32 14 39 14 20 0 113 41 144
63 15 11 33 17 42 14 8 -3 18 -1 22 5 4 7 3 8 -4 4 -7 -4 -12 -5 -12 -2 0 9
47 56 56 56 14 0 60 43 74 69 8 16 15 20 19 12 5 -7 28 -14 52 -17 81 -8 153
15 102 33 -10 3 -25 12 -33 19 -9 7 -30 14 -48 16 -36 3 -37 4 -19 21 64 61
140 119 133 102 -7 -18 -5 -18 17 3 13 12 31 22 41 22 13 0 17 5 13 19 -3 12
3 27 14 37 26 24 24 39 -9 63 -38 26 -191 53 -177 31 3 -5 18 -10 32 -10 22 0
59 -8 122 -26 18 -6 -5 -34 -27 -34 -8 0 -47 -18 -85 -40 -39 -23 -97 -50
-130 -61 -70 -24 -167 -31 -174 -12 -4 9 -9 9 -25 0 -14 -8 -22 -8 -24 -2 -2
6 -22 9 -44 7 -22 -2 -47 1 -55 8 -8 6 -19 9 -25 5 -5 -3 -10 -2 -10 4 0 12
121 88 155 97 14 3 24 8 21 11 -5 5 -87 -17 -102 -29 -12 -9 -89 -6 -99 4 -4
4 -13 4 -20 2 -21 -8 -46 47 -32 71 5 11 15 23 21 27 7 5 7 8 -2 8 -10 0 -10
5 -2 21 7 11 10 22 8 23 -2 1 -23 -5 -48 -15z m-1070 -56 c19 -8 67 -30 105
-49 161 -77 424 -280 323 -248 -13 3 -24 11 -26 15 -2 5 -10 9 -18 9 -8 0 -14
4 -14 10 0 5 -21 20 -47 32 -27 12 -53 29 -60 38 -7 8 -13 11 -13 7 0 -5 -13
1 -29 12 -16 12 -34 21 -40 21 -7 0 -23 10 -36 23 -47 45 -77 67 -111 83 -19
9 -34 20 -34 25 0 5 -7 9 -15 9 -8 0 -29 9 -47 21 l-33 21 30 -7 c17 -4 46
-13 65 -22z"/>
<path d="M1740 3761 c0 -17 3 -30 8 -29 4 1 17 -3 29 -10 17 -9 28 -9 48 0 34
15 27 31 -20 40 -21 5 -44 13 -52 19 -10 9 -13 5 -13 -20z"/>
<path d="M2478 3783 c6 -2 18 -2 25 0 6 3 1 5 -13 5 -14 0 -19 -2 -12 -5z"/>
<path d="M2970 3593 c0 -4 -19 -7 -43 -5 -37 3 -46 0 -70 -27 -24 -27 -31 -30
-48 -20 -14 7 -24 8 -31 1 -13 -13 -2 -32 19 -32 10 0 14 -6 11 -18 -3 -10 1
-23 9 -31 8 -7 11 -21 8 -31 -4 -12 1 -19 15 -23 23 -6 27 -35 5 -43 -12 -5
-12 -9 2 -30 8 -13 22 -24 29 -24 8 0 14 -4 14 -9 0 -5 21 -5 48 0 26 5 54 10
62 12 8 1 21 13 27 26 15 28 17 107 3 116 -19 12 -11 73 10 88 18 12 19 15 5
20 -8 4 -14 12 -13 19 2 8 -10 14 -29 16 -18 2 -33 0 -33 -5z m-50 -57 c0 -2
-7 -6 -15 -10 -8 -3 -15 -1 -15 4 0 6 7 10 15 10 8 0 15 -2 15 -4z"/>
<path d="M0 3457 c0 -20 5 -37 10 -37 16 0 16 47 -1 65 -5 5 -9 -5 -9 -28z"/>
<path d="M657 3333 c-11 -11 -8 -48 5 -61 7 -7 29 -12 49 -12 39 0 54 16 42
46 -9 25 -79 45 -96 27z"/>
<path d="M3678 3283 c6 -2 18 -2 25 0 6 3 1 5 -13 5 -14 0 -19 -2 -12 -5z"/>
<path d="M1123 3258 c-40 -13 -41 -21 -8 -36 51 -24 82 -11 70 28 -7 22 -15
23 -62 8z"/>
<path d="M3680 3260 c0 -5 5 -10 10 -10 6 0 10 5 10 10 0 6 -4 10 -10 10 -5 0
-10 -4 -10 -10z"/>
<path d="M920 3245 c-10 -12 -10 -19 -2 -27 13 -13 142 11 145 27 1 6 -27 11
-64 13 -50 2 -69 -1 -79 -13z"/>
<path d="M2389 3177 c-13 -5 -38 -9 -56 -9 -17 0 -34 -6 -36 -13 -7 -17 72
-75 103 -75 24 0 77 29 55 30 -5 0 -4 4 3 9 8 5 11 17 7 33 -8 29 -39 40 -76
25z"/>
<path d="M1340 3078 c-50 -26 -83 -74 -78 -113 3 -24 8 -21 83 55 85 86 84
103 -5 58z"/>
<path d="M2807 3024 c-3 -3 -38 -7 -77 -9 -86 -4 -132 -14 -125 -25 3 -5 -4
-11 -15 -15 -11 -3 -21 -11 -21 -16 -1 -5 -2 -14 -3 -21 0 -6 -7 -13 -15 -16
-8 -3 -11 0 -7 7 8 13 -3 14 -21 3 -9 -6 -6 -17 12 -44 24 -35 55 -48 114 -48
24 1 24 2 9 14 -10 7 -14 17 -10 21 4 5 2 6 -3 2 -6 -3 -29 3 -50 13 -32 14
-36 19 -23 25 9 3 15 12 12 19 -3 9 4 11 25 8 19 -3 36 2 46 12 13 12 29 14
77 9 50 -5 62 -3 70 10 5 10 18 17 28 17 10 0 22 5 26 11 11 18 -33 39 -49 23z
m-154 -38 c4 -10 1 -13 -9 -9 -15 6 -19 23 -5 23 5 0 11 -7 14 -14z"/>
<path d="M1226 2964 c-3 -9 -30 -53 -60 -98 -78 -119 -82 -137 -57 -249 20
-87 40 -141 41 -109 0 22 91 245 107 264 9 10 36 25 62 35 42 16 83 18 436 17
215 -1 442 -7 505 -13 63 -7 135 -14 160 -17 25 -2 59 -6 75 -10 17 -3 77 -9
135 -14 58 -5 114 -12 125 -14 11 -3 37 -10 58 -15 44 -11 40 -7 60 -46 14
-27 16 -28 17 -8 0 36 -21 71 -49 82 -34 13 -134 28 -306 46 -289 31 -410 37
-775 38 -382 2 -410 0 -504 -39 -18 -7 -19 -3 -14 79 5 81 -1 109 -16 71z m2
-169 c-2 -14 -6 -24 -10 -23 -8 3 -37 -32 -38 -45 0 -5 5 -5 10 -2 6 3 10 -1
10 -10 0 -26 -28 -85 -41 -85 -7 0 -9 -10 -6 -28 3 -15 1 -34 -4 -42 -7 -11
-9 6 -6 55 3 53 12 88 36 138 33 68 55 87 49 42z"/>
<path d="M3004 2953 c-12 -2 -33 -17 -48 -34 -14 -16 -31 -29 -37 -29 -5 0 -8
-4 -4 -9 3 -6 -2 -14 -11 -19 -24 -14 -9 -48 28 -61 47 -16 64 -14 89 15 69
75 65 74 98 45 16 -14 20 -26 16 -43 -5 -19 -1 -27 20 -36 34 -16 50 -15 65 2
6 8 17 13 25 10 17 -7 95 14 95 25 0 5 9 11 20 14 11 3 18 2 16 -2 -3 -3 16
-5 40 -4 26 2 65 -5 95 -17 35 -14 55 -17 67 -11 10 5 24 9 32 9 8 -1 34 0 58
0 38 2 42 5 42 27 0 14 -4 25 -10 25 -5 0 -10 8 -10 19 0 29 -23 43 -54 31
-14 -5 -26 -14 -26 -20 0 -6 -4 -8 -10 -5 -5 3 -10 11 -10 16 0 6 5 7 10 4 6
-3 10 -1 10 4 0 12 -13 15 -23 4 -4 -3 -22 -8 -39 -10 -18 -1 -43 -5 -56 -8
-29 -7 -41 21 -17 39 14 10 15 15 5 21 -7 4 -15 3 -19 -2 -3 -5 -23 -14 -45
-20 -31 -10 -47 -9 -80 2 -28 10 -62 13 -107 8 -45 -4 -68 -2 -73 6 -7 11
-105 13 -152 4z m616 -98 c0 -8 -4 -15 -10 -15 -5 0 -10 7 -10 15 0 8 5 15 10
15 6 0 10 -7 10 -15z"/>
<path d="M2675 2860 c3 -5 8 -10 11 -10 2 0 4 5 4 10 0 6 -5 10 -11 10 -5 0
-7 -4 -4 -10z"/>
<path d="M0 2590 c0 -44 4 -80 9 -80 15 0 30 25 39 68 8 36 7 46 -10 67 -11
14 -24 25 -29 25 -5 0 -9 -36 -9 -80z"/>
<path d="M899 2600 c-3 -8 -17 -16 -30 -17 -23 -1 -109 -24 -118 -30 -11 -8
34 -30 51 -25 21 5 24 18 6 25 -7 3 8 6 34 6 51 1 71 -15 45 -34 -25 -18 -21
-25 12 -25 16 0 41 -4 55 -10 15 -5 26 -6 26 0 0 4 8 11 18 14 9 2 1 5 -18 4
-63 0 -62 0 -58 37 2 19 1 35 -3 35 -4 0 -9 8 -11 18 -3 14 -5 14 -9 2z"/>
<path d="M584 2563 c22 -4 26 -7 15 -14 -11 -7 -9 -9 9 -9 12 0 22 4 22 9 0
12 -26 21 -53 20 -15 -2 -13 -3 7 -6z"/>
<path d="M988 2559 c15 -6 30 -5 40 1 13 7 8 9 -23 9 -35 0 -37 -1 -17 -10z"/>
<path d="M730 2510 c0 -5 5 -10 10 -10 6 0 10 5 10 10 0 6 -4 10 -10 10 -5 0
-10 -4 -10 -10z"/>
<path d="M563 2503 c9 -2 23 -2 30 0 6 3 -1 5 -18 5 -16 0 -22 -2 -12 -5z"/>
<path d="M409 2484 c-9 -11 -8 -14 4 -14 8 0 17 6 20 13 3 9 7 9 17 0 7 -6 28
-9 49 -6 34 4 35 4 16 -12 -11 -9 -20 -21 -20 -28 0 -7 -19 -12 -49 -14 -28
-1 -56 -9 -65 -18 -14 -13 -13 -15 6 -15 12 0 25 -4 28 -10 4 -6 12 -6 23 -1
9 5 47 18 83 27 46 13 65 22 62 31 -5 13 8 17 36 13 12 -1 12 1 0 13 -21 21
-48 27 -128 31 -51 3 -73 0 -82 -10z"/>
<path d="M208 2443 c7 -3 16 -2 19 1 4 3 -2 6 -13 5 -11 0 -14 -3 -6 -6z"/>
<path d="M80 2420 c0 -5 16 -10 35 -10 19 0 35 5 35 10 0 6 -16 10 -35 10 -19
0 -35 -4 -35 -10z"/>
<path d="M903 2403 c9 -9 23 -12 41 -7 35 8 25 18 -20 20 -30 1 -33 -1 -21
-13z"/>
<path d="M238 2403 c7 -3 16 -2 19 1 4 3 -2 6 -13 5 -11 0 -14 -3 -6 -6z"/>
<path d="M523 2373 c9 -9 19 -14 23 -11 10 10 -6 28 -24 28 -15 0 -15 -1 1
-17z"/>
<path d="M656 2382 c-3 -4 8 -13 25 -19 30 -12 37 -5 17 15 -14 14 -35 16 -42
4z"/>
<path d="M785 2380 c-3 -5 -1 -10 4 -10 6 0 11 5 11 10 0 6 -2 10 -4 10 -3 0
-8 -4 -11 -10z"/>
<path d="M605 2270 c3 -5 17 -10 31 -10 14 0 22 4 19 10 -3 6 -17 10 -31 10
-14 0 -22 -4 -19 -10z"/>
<path d="M678 2263 c7 -3 16 -2 19 1 4 3 -2 6 -13 5 -11 0 -14 -3 -6 -6z"/>
<path d="M1823 2153 c-111 -58 -135 -67 -183 -67 -30 -1 -68 3 -85 7 -21 6
-27 5 -20 -2 6 -6 38 -16 70 -22 73 -13 111 -4 215 55 41 23 89 48 107 55 18
7 38 19 44 27 24 29 -21 13 -148 -53z"/>
<path d="M2042 2212 c-7 -5 30 -9 82 -9 79 -1 104 -5 150 -26 31 -14 56 -28
56 -30 0 -2 -22 -2 -49 1 -65 6 -109 -10 -154 -56 -70 -72 -70 -201 0 -262 18
-17 43 -30 54 -30 12 0 17 -4 13 -11 -4 -7 0 -9 12 -6 11 3 39 9 63 12 32 5
56 18 87 47 86 80 92 189 15 267 l-36 36 38 -23 c21 -12 45 -22 54 -22 9 0 45
-18 79 -41 64 -42 135 -61 148 -40 5 7 -2 11 -17 11 -14 0 -67 28 -118 62
-140 91 -189 119 -201 112 -6 -4 2 -16 18 -30 l29 -23 -51 24 c-28 13 -70 29
-95 34 -53 13 -159 14 -177 3z m175 -198 c12 -19 11 -24 -5 -44 -36 -45 -99
-1 -72 50 14 27 57 23 77 -6z"/>
<path d="M3315 2190 c4 -6 11 -8 16 -5 14 9 11 15 -7 15 -8 0 -12 -5 -9 -10z"/>
<path d="M1274 2126 c-46 -21 -77 -70 -82 -132 -15 -178 174 -283 288 -160 36
39 40 134 8 195 -46 88 -140 131 -214 97z m37 -107 c8 -16 8 -28 0 -45 -18
-41 -71 -25 -71 21 0 44 50 61 71 24z"/>
<path d="M698 2063 c7 -3 16 -2 19 1 4 3 -2 6 -13 5 -11 0 -14 -3 -6 -6z"/>
<path d="M560 2050 c-8 -5 -12 -12 -9 -15 4 -3 12 1 19 10 14 17 11 19 -10 5z"/>
<path d="M575 2011 c-3 -5 -1 -12 4 -15 13 -8 42 4 35 15 -7 12 -31 12 -39 0z"/>
<path d="M970 1982 c0 -44 16 -62 100 -113 57 -35 120 -87 120 -100 0 -22
-255 64 -394 133 -49 24 -74 32 -65 22 20 -25 238 -127 349 -165 89 -29 189
-83 205 -110 12 -18 -80 -4 -194 32 -181 55 -226 70 -259 86 -19 8 -35 13 -38
11 -2 -3 24 -17 59 -33 126 -57 194 -82 308 -115 93 -27 139 -52 139 -76 0 -7
-8 -10 -20 -7 -16 4 -19 2 -14 -11 3 -9 9 -16 13 -16 4 0 17 -9 29 -20 27 -26
126 -41 117 -19 -4 11 6 13 50 11 38 -3 55 -8 55 -17 0 -9 17 -16 48 -20 26
-3 70 -10 97 -16 28 -6 59 -11 70 -11 11 0 65 -7 121 -14 74 -11 114 -12 153
-4 30 5 76 10 102 10 27 0 49 3 49 8 0 4 21 7 48 7 27 0 55 6 66 15 17 13 19
13 12 0 -4 -8 -1 -7 8 4 8 10 20 15 26 11 6 -4 29 5 52 20 22 15 37 21 33 15
-9 -14 -6 -12 65 35 25 16 48 34 51 39 4 5 16 6 27 4 15 -4 19 -2 15 8 -6 16
5 18 26 5 9 -6 22 -6 33 0 10 5 18 6 18 1 0 -14 83 -8 88 6 2 6 -4 12 -13 12
-11 0 -15 5 -11 16 3 8 2 13 -2 10 -5 -3 -22 -1 -38 4 -16 4 -21 9 -11 9 21 1
23 29 2 38 -14 5 -14 8 1 24 13 15 26 18 53 13 62 -10 71 -15 71 -37 1 -25 27
-64 36 -54 4 4 12 3 18 -2 14 -12 108 -17 124 -7 7 4 19 2 27 -4 13 -11 9 -16
-22 -32 -33 -18 -37 -18 -45 -4 -13 22 -55 20 -68 -3 -15 -28 -13 -38 10 -44
26 -7 26 -27 0 -27 -17 0 -18 -3 -8 -25 9 -20 16 -23 37 -18 35 8 42 13 36 23
-3 5 -1 11 5 15 9 6 15 -8 11 -29 -3 -14 21 -36 31 -30 6 4 5 10 -3 15 -8 5
-9 9 -4 9 15 0 37 -16 35 -26 -1 -5 9 -11 22 -14 33 -8 3 -17 -44 -14 -28 2
-36 0 -31 -11 4 -11 -4 -14 -29 -13 -18 0 -52 -2 -74 -6 -35 -6 -41 -11 -37
-27 6 -20 44 -36 62 -24 6 3 11 1 11 -4 0 -6 5 -11 10 -11 6 0 10 6 10 14 0 9
7 12 20 9 14 -4 20 -14 20 -34 0 -23 5 -29 20 -29 12 0 20 6 19 13 -4 33 2 37
22 18 12 -11 18 -24 14 -30 -3 -6 -1 -11 5 -11 7 0 10 -7 7 -15 -5 -11 -1 -12
18 -5 19 7 23 6 18 -5 -6 -18 8 -20 26 -2 10 10 11 9 6 -4 -5 -13 0 -15 25
-11 18 2 30 0 30 -7 0 -6 -3 -10 -7 -10 -23 4 -35 -3 -30 -15 3 -8 -2 -17 -11
-21 -16 -6 -15 -8 2 -21 14 -10 23 -11 33 -3 10 9 13 8 13 -5 0 -14 -6 -16
-35 -10 -27 5 -36 3 -41 -10 -3 -9 -13 -16 -21 -16 -8 0 -11 -5 -8 -10 4 -6
12 -7 18 -3 7 3 4 -3 -6 -14 -18 -20 -14 -58 5 -47 6 4 7 -2 3 -16 -5 -15 -4
-20 4 -16 7 5 9 1 5 -8 -4 -12 -20 -16 -55 -16 -37 0 -49 -4 -49 -15 0 -15 13
-19 65 -17 26 1 27 0 10 -7 -11 -5 -35 -10 -54 -10 -46 -1 -32 -12 26 -21 28
-5 68 -2 102 6 43 9 58 10 64 1 6 -9 10 -9 14 1 5 14 23 7 23 -10 0 -6 -12 -8
-31 -4 -22 4 -29 2 -26 -7 2 -6 17 -15 33 -18 23 -5 24 -7 7 -8 -27 -1 -31
-20 -5 -22 9 -1 -2 -5 -26 -11 -49 -11 -47 -28 3 -28 21 0 35 -6 39 -16 5 -12
14 -15 37 -10 39 7 29 -10 -11 -19 -17 -4 -35 -15 -40 -25 -6 -11 -17 -17 -25
-14 -8 3 -19 3 -26 -1 -16 -11 8 -24 46 -26 21 -1 24 -3 10 -6 -38 -10 -68
-76 -38 -87 11 -5 11 -9 1 -26 -7 -11 -19 -20 -27 -20 -8 0 -12 -3 -8 -6 13
-13 -24 -36 -48 -30 -23 6 -30 -1 -26 -26 0 -5 -6 -8 -14 -8 -21 0 -18 -12 11
-39 21 -20 29 -22 47 -13 31 15 74 26 64 17 -11 -12 23 -45 46 -45 13 0 17 -5
14 -15 -4 -8 -2 -17 3 -20 6 -4 10 2 10 13 0 15 5 18 26 14 16 -3 36 3 53 16
26 19 29 19 45 4 15 -15 16 -15 16 0 0 9 -6 19 -12 22 -10 5 -10 7 0 12 6 3
12 13 12 21 0 9 6 13 14 10 8 -3 17 -1 20 6 3 8 10 6 20 -7 8 -10 19 -15 25
-11 17 10 13 -6 -6 -27 -13 -15 -13 -18 -2 -18 15 0 19 -37 5 -58 -13 -21 -23
-13 -18 13 2 14 0 25 -6 25 -6 0 -17 3 -26 6 -12 5 -16 0 -16 -19 0 -20 -5
-24 -26 -24 -16 0 -21 2 -14 7 8 5 9 10 2 14 -13 8 -42 -3 -42 -15 0 -5 -3 -8
-7 -8 -5 1 -15 1 -23 0 -20 -1 18 -28 50 -34 14 -2 -1 -3 -34 0 -50 4 -58 2
-53 -11 4 -10 1 -16 -8 -16 -10 0 -15 -10 -15 -30 0 -20 -5 -30 -15 -30 -10 0
-15 -10 -15 -29 0 -22 -6 -31 -22 -37 -13 -4 -34 -15 -47 -25 -27 -21 -41 -24
-41 -8 0 6 9 13 20 16 11 3 20 9 20 14 0 5 15 13 32 19 l33 10 -38 -3 c-27 -2
-36 1 -33 9 3 8 -1 11 -10 7 -7 -3 -14 -9 -14 -13 0 -5 -9 -12 -21 -15 -20 -7
-59 -39 -59 -50 0 -3 8 -5 18 -5 16 -1 16 -1 -1 -11 -10 -6 -23 -9 -30 -6 -20
6 -34 -16 -31 -51 1 -22 -2 -32 -12 -32 -12 0 -12 -4 -4 -20 10 -20 19 -20
378 -18 l367 3 3 88 c3 85 2 87 -20 88 -15 0 -18 3 -8 6 8 3 18 11 22 17 4 6
8 302 8 658 0 638 0 647 -20 653 -11 3 -28 4 -39 0 -15 -4 -18 0 -18 21 -1 18
6 28 18 31 11 3 19 9 19 13 0 7 -55 20 -92 21 -29 1 -21 14 14 24 42 13 53 41
12 31 -16 -4 -49 -10 -74 -12 l-45 -4 39 15 c21 8 44 19 51 25 7 6 26 7 43 4
27 -5 32 -2 47 26 9 17 14 35 10 38 -4 4 -36 8 -71 8 -47 1 -69 -3 -81 -14
-10 -10 -39 -17 -87 -19 -100 -6 -107 -7 -148 -25 -50 -22 -50 -39 0 -26 47
12 102 20 82 12 -8 -4 -21 -12 -29 -17 -7 -6 -20 -12 -28 -13 -19 -3 -30 -14
-14 -14 7 0 9 -5 5 -12 -6 -9 -3 -9 9 0 14 12 20 11 39 -2 13 -9 17 -16 9 -16
-8 0 -29 -12 -48 -26 -24 -18 -41 -24 -58 -20 -13 3 -35 2 -49 -4 -18 -7 -26
-6 -26 1 0 7 -11 9 -29 6 -35 -7 -67 13 -58 37 7 18 37 20 107 6 43 -8 70 0
70 20 0 10 -56 30 -64 23 -3 -3 -19 -7 -35 -9 -23 -3 -31 1 -36 16 -7 21 -39
27 -50 10 -4 -6 -15 -4 -30 6 -14 9 -31 14 -39 11 -8 -3 -17 0 -19 7 -9 22
-59 30 -73 12 -6 -9 -16 -16 -21 -16 -6 0 -10 -7 -9 -16 1 -12 -8 -17 -32 -18
-39 -1 -42 15 -7 42 16 13 21 21 12 24 -17 7 -38 -2 -31 -13 3 -5 0 -9 -5 -9
-17 0 -13 18 9 40 11 11 20 25 20 30 0 14 -27 12 -33 -2 -3 -10 -9 -10 -26 0
-11 6 -32 12 -46 12 -14 0 -25 3 -25 6 0 19 24 84 32 84 4 0 8 9 8 20 0 17 -3
19 -19 8 -11 -7 -22 -20 -24 -30 -3 -10 -16 -22 -30 -27 -14 -5 -28 -15 -32
-21 -3 -5 -10 -8 -15 -5 -5 3 -25 -2 -45 -12 -42 -20 -66 -11 -75 28 -3 13
-18 31 -33 39 -25 14 -30 13 -64 -5 -21 -11 -44 -33 -52 -50 -8 -16 -17 -37
-21 -45 -5 -10 -19 -14 -45 -12 -20 2 -34 -1 -31 -6 3 -5 -21 -9 -53 -8 -48 0
-58 2 -53 14 3 10 1 13 -6 8 -7 -4 -10 -17 -6 -32 6 -22 3 -24 -25 -24 -17 0
-31 4 -31 9 0 5 -16 9 -35 9 -19 0 -32 -4 -29 -9 3 -5 -2 -9 -11 -9 -8 0 -21
12 -27 26 -9 20 -16 24 -32 18 -45 -16 -111 -10 -140 14 -37 28 -51 28 -88 -3
-40 -34 -70 -40 -106 -21 -43 22 -45 21 -39 -19 3 -21 2 -33 -4 -30 -5 4 -9 1
-9 -5 0 -7 8 -9 19 -5 11 3 22 1 26 -5 3 -5 18 -10 32 -10 15 0 23 -3 20 -7
-4 -3 -31 -5 -60 -4 -42 1 -59 -3 -82 -21 -19 -15 -30 -18 -33 -10 -2 7 -17
12 -33 12 -19 0 -29 5 -29 15 0 12 -4 13 -19 5 -29 -15 -37 -13 -49 15 -8 16
-20 25 -35 25 -28 0 -63 34 -78 78 -6 18 -15 32 -19 32 -5 0 -21 11 -36 25
-15 14 -38 25 -51 25 -21 0 -22 3 -13 20 8 15 7 18 -2 15 -7 -3 -38 15 -68 41
-30 25 -67 54 -82 65 l-28 20 0 -39z m1831 -237 c1 -17 -18 -17 -25 0 -4 11
-1 15 10 13 8 -2 15 -7 15 -13z m-944 -52 c36 -24 16 -35 -66 -37 -74 -2 -87
7 -53 36 35 31 72 32 119 1z m134 -2 c-7 -5 -11 -13 -8 -18 3 -5 -3 -9 -14 -9
-10 0 -19 2 -19 4 0 8 45 40 50 36 2 -3 -2 -9 -9 -13z m1470 -5 c-7 -8 -21
-12 -34 -8 -22 6 -22 6 3 13 39 11 43 10 31 -5z m-406 -36 c3 -5 1 -10 -4 -10
-6 0 -11 5 -11 10 0 6 2 10 4 10 3 0 8 -4 11 -10z m72 4 c-3 -3 -12 -4 -19 -1
-8 3 -5 6 6 6 11 1 17 -2 13 -5z m408 -58 c-19 -13 -111 -22 -160 -16 -22 3
103 27 150 29 28 1 28 0 10 -13z m-455 -20 c0 -3 -4 -8 -10 -11 -5 -3 -10 -1
-10 4 0 6 5 11 10 11 6 0 10 -2 10 -4z m523 -3 c-7 -2 -21 -2 -30 0 -10 3 -4
5 12 5 17 0 24 -2 18 -5z m-31 -28 c0 -5 -5 -11 -11 -13 -6 -2 -11 4 -11 13 0
9 5 15 11 13 6 -2 11 -8 11 -13z m-52 1 c0 -2 -7 -7 -16 -10 -8 -3 -12 -2 -9
4 6 10 25 14 25 6z m-348 -37 c-44 -11 -64 -10 -57 2 4 6 9 8 12 6 2 -3 16 1
31 9 20 10 28 11 34 1 5 -8 -2 -14 -20 -18z m101 24 c4 -3 2 -12 -3 -18 -8 -9
-3 -15 17 -20 21 -5 24 -8 12 -16 -12 -8 -12 -10 1 -19 8 -5 24 -10 35 -11 11
-1 0 -5 -25 -10 -79 -15 -90 -19 -90 -34 0 -19 -24 -19 -40 -1 -6 8 -21 16
-32 18 -12 2 -23 9 -26 17 -3 8 0 11 7 7 6 -4 11 -3 11 3 0 5 -6 11 -12 14 -7
2 4 8 24 12 20 4 51 20 69 36 34 30 41 33 52 22z m340 -18 c2 -12 -82 -25 -89
-14 -3 5 8 11 23 15 15 3 33 7 38 9 15 5 26 1 28 -10z m-516 -21 c-7 -8 -77
-7 -84 1 -4 4 -1 6 7 3 9 -3 24 0 35 8 14 10 22 11 32 2 7 -6 12 -12 10 -14z
m543 -8 c0 -3 -4 -8 -10 -11 -5 -3 -10 -1 -10 4 0 6 5 11 10 11 6 0 10 -2 10
-4z m-110 -20 c0 -2 -7 -6 -15 -10 -8 -3 -15 -1 -15 4 0 6 7 10 15 10 8 0 15
-2 15 -4z m170 -25 c0 -5 -10 -11 -22 -14 -13 -3 -33 -9 -45 -12 -13 -4 -23
-3 -23 2 0 13 39 31 68 32 12 1 22 -3 22 -8z m-270 -15 c0 -2 -7 -6 -15 -10
-8 -3 -15 -1 -15 4 0 6 7 10 15 10 8 0 15 -2 15 -4z m-88 -18 c-9 -9 -15 -9
-24 0 -9 9 -7 12 12 12 19 0 21 -3 12 -12z m-182 -2 c0 -2 -7 -6 -15 -10 -8
-3 -15 -1 -15 4 0 6 7 10 15 10 8 0 15 -2 15 -4z m150 -20 c0 -3 -4 -8 -10
-11 -5 -3 -10 -1 -10 4 0 6 5 11 10 11 6 0 10 -2 10 -4z m40 -26 c0 -5 -2 -10
-4 -10 -3 0 -8 5 -11 10 -3 6 -1 10 4 10 6 0 11 -4 11 -10z m199 -18 c-50 -5
-71 11 -24 17 22 4 43 2 47 -4 5 -6 -5 -11 -23 -13z m126 -2 c3 -6 -1 -7 -9
-4 -18 7 -21 14 -7 14 6 0 13 -4 16 -10z m-462 -6 c8 -8 -3 -34 -14 -34 -5 0
-9 9 -9 20 0 19 11 26 23 14z m228 -4 c5 0 9 -4 9 -10 0 -5 -11 -10 -25 -10
-13 0 -29 -8 -34 -17 -10 -17 -10 -17 -11 0 0 9 -4 17 -10 17 -5 0 -10 4 -10
9 0 11 38 20 58 15 8 -2 18 -4 23 -4z m-365 -36 c-9 -8 -21 -12 -27 -8 -13 7
7 24 29 24 10 0 10 -4 -2 -16z m188 -3 c19 -7 19 -8 -1 -13 -14 -4 -24 0 -27
8 -6 15 -1 16 28 5z m161 -1 c3 -5 -1 -10 -10 -10 -9 0 -13 5 -10 10 3 6 8 10
10 10 2 0 7 -4 10 -10z m242 -36 c-3 -3 -12 -4 -19 -1 -8 3 -5 6 6 6 11 1 17
-2 13 -5z m-267 -24 c0 -5 -2 -10 -4 -10 -3 0 -8 5 -11 10 -3 6 -1 10 4 10 6
0 11 -4 11 -10z m-133 -6 c-3 -3 -12 -4 -19 -1 -8 3 -5 6 6 6 11 1 17 -2 13
-5z m52 -3 c9 -6 10 -11 2 -15 -6 -4 -11 -3 -11 3 0 5 -8 12 -17 14 -13 3 -14
5 -3 6 8 0 21 -3 29 -8z m281 -11 c-8 -5 -19 -10 -25 -10 -5 0 -3 5 5 10 8 5
20 10 25 10 6 0 3 -5 -5 -10z m85 -30 c3 -5 -1 -10 -10 -10 -9 0 -13 5 -10 10
3 6 8 10 10 10 2 0 7 -4 10 -10z m-12 -26 c21 5 24 3 20 -14 -5 -20 -23 -28
-23 -10 0 6 -3 10 -7 9 -5 -1 -19 2 -31 6 -17 6 -20 10 -11 16 8 4 16 3 20 -3
4 -6 18 -8 32 -4z m-473 -9 c0 -8 -7 -15 -16 -15 -14 0 -14 3 -4 15 7 8 14 15
16 15 2 0 4 -7 4 -15z m329 -3 c22 -10 38 -22 34 -25 -3 -4 -12 -2 -18 3 -15
12 -82 17 -92 6 -4 -4 4 -10 17 -13 19 -5 14 -8 -30 -20 -29 -7 -55 -12 -57
-10 -8 9 40 57 57 57 10 0 22 5 25 10 9 14 17 13 64 -8z m-199 -32 c0 -5 -5
-10 -11 -10 -5 0 -7 5 -4 10 3 6 8 10 11 10 2 0 4 -4 4 -10z m300 -10 c0 -5
-7 -10 -15 -10 -8 0 -15 5 -15 10 0 6 7 10 15 10 8 0 15 -4 15 -10z m-309 -43
c-13 -13 -26 -3 -16 12 3 6 11 8 17 5 6 -4 6 -10 -1 -17z m144 13 c4 -6 -6
-10 -22 -9 -25 0 -26 1 -8 9 11 5 21 9 22 9 1 1 5 -3 8 -9z m-325 -4 c0 -3 -4
-8 -10 -11 -5 -3 -10 -1 -10 4 0 6 5 11 10 11 6 0 10 -2 10 -4z m250 -135 c0
-5 -6 -11 -12 -14 -9 -3 -5 -10 10 -22 25 -18 21 -35 -8 -35 -19 0 -36 32 -25
50 6 10 -13 15 -47 12 -10 -1 -18 3 -18 8 0 6 23 10 50 10 28 0 50 -4 50 -9z
m-120 -78 c0 -7 -4 -13 -10 -13 -5 0 -10 12 -10 28 0 21 2 24 10 12 5 -8 10
-21 10 -27z m30 12 c0 -14 -5 -25 -11 -25 -6 0 -9 6 -6 14 3 7 0 19 -6 25 -8
8 -7 11 6 11 11 0 17 -8 17 -25z m38 -19 c-7 -8 -15 -12 -17 -11 -5 6 10 25
20 25 5 0 4 -6 -3 -14z m112 -26 c0 -5 -4 -10 -10 -10 -5 0 -12 -11 -16 -25
-7 -30 -24 -33 -24 -5 0 11 5 20 10 20 6 0 10 7 10 15 0 8 7 15 15 15 8 0 15
-4 15 -10z m-120 -30 c0 -5 6 -10 13 -10 20 0 18 -35 -4 -48 -11 -7 -19 -8
-19 -2 0 5 5 10 10 10 6 0 10 7 10 16 0 11 -6 15 -20 11 -22 -6 -23 -5 -14 17
7 18 24 22 24 6z m145 -20 c-3 -5 -14 -10 -23 -10 -15 0 -15 2 -2 10 20 13 33
13 25 0z m-19 -32 c5 -8 2 -9 -9 -5 -13 5 -17 1 -18 -16 0 -12 -3 -16 -6 -9
-12 29 17 56 33 30z m-146 -18 c0 -5 -2 -10 -4 -10 -3 0 -8 5 -11 10 -3 6 -1
10 4 10 6 0 11 -4 11 -10z m390 -14 c0 -3 -4 -8 -10 -11 -5 -3 -10 -1 -10 4 0
6 5 11 10 11 6 0 10 -2 10 -4z m-280 -60 c0 -14 4 -27 10 -31 5 -3 7 -12 3
-20 -3 -10 2 -15 17 -15 11 0 19 -4 15 -9 -3 -5 -1 -12 5 -16 22 -14 10 -34
-19 -32 -16 1 -27 6 -23 11 3 5 -5 7 -16 4 -18 -5 -22 -2 -22 18 0 15 6 24 15
24 8 0 15 5 15 10 0 6 -7 10 -16 10 -12 0 -14 3 -6 13 10 12 2 40 -12 38 -3
-1 -16 -1 -28 0 -22 0 -22 1 -3 9 11 5 30 9 43 9 17 1 22 -5 22 -23z m-190
-16 c0 -5 -4 -10 -10 -10 -5 0 -10 5 -10 10 0 6 5 10 10 10 6 0 10 -4 10 -10z
m111 -13 c-17 -17 -13 -27 13 -37 17 -6 25 -18 28 -44 3 -30 1 -35 -17 -33
-16 2 -20 -3 -18 -26 1 -22 -2 -27 -15 -25 -9 3 -16 10 -14 16 3 18 -16 14
-27 -5 -9 -17 -11 -17 -25 2 -16 20 -16 20 -22 -2 -3 -13 -10 -23 -13 -23 -4
0 -7 10 -7 23 1 18 -4 21 -24 19 -16 -2 -21 1 -15 7 10 10 50 19 91 20 13 1
24 9 27 21 3 12 14 20 29 21 17 1 13 4 -17 14 -22 8 -32 14 -22 14 14 1 16 5
7 20 -14 27 -13 34 5 28 8 -4 17 -2 20 4 4 5 11 6 17 3 6 -4 6 -10 -1 -17z
m-98 -71 c6 -16 -2 -28 -14 -20 -12 7 -11 34 0 34 5 0 11 -6 14 -14z m-93 -66
c0 -5 -4 -10 -9 -10 -6 0 -13 5 -16 10 -3 6 1 10 9 10 9 0 16 -4 16 -10z m260
-146 c0 -2 -7 -4 -15 -4 -8 0 -15 4 -15 10 0 5 7 7 15 4 8 -4 15 -8 15 -10z
m100 -19 c0 -23 -4 -30 -14 -27 -5 2 -4 -4 4 -12 10 -13 10 -16 -1 -16 -11 0
-11 -2 1 -10 13 -9 13 -10 0 -11 -8 -1 -19 0 -25 1 -5 2 -18 2 -28 2 -14 -1
-16 2 -8 12 9 10 7 15 -6 20 -11 5 -22 1 -30 -10 -7 -10 -13 -12 -13 -6 0 7
-15 12 -38 12 -43 0 -53 6 -45 26 6 16 53 19 53 4 0 -5 9 -10 20 -10 11 0 20
4 20 9 0 6 12 3 28 -5 24 -12 28 -12 38 2 7 8 9 24 6 36 -4 18 -3 19 17 9 11
-7 21 -18 21 -26z m35 -5 c3 -5 2 -10 -4 -10 -5 0 -13 5 -16 10 -3 6 -2 10 4
10 5 0 13 -4 16 -10z m-270 -61 c-4 -5 0 -9 8 -9 14 0 27 -28 27 -60 0 -11 -3
-11 -12 -2 -17 17 -26 15 -33 -8 -4 -12 -15 -20 -28 -20 -20 0 -20 0 -1 15 14
11 15 14 4 15 -10 0 -11 3 -4 8 6 4 14 24 18 45 4 21 11 35 17 32 5 -4 7 -11
4 -16z m52 -21 c-3 -8 -6 -5 -6 6 -1 11 2 17 5 13 3 -3 4 -12 1 -19z m-50
-103 c0 -8 -4 -12 -9 -9 -5 3 -6 10 -3 15 9 13 12 11 12 -6z m48 5 c-3 -5 -12
-10 -18 -10 -7 0 -6 4 3 10 19 12 23 12 15 0z m212 -6 c-3 -3 -12 -4 -19 -1
-8 3 -5 6 6 6 11 1 17 -2 13 -5z m8 -80 c21 -22 14 -27 -21 -14 -20 8 -30 8
-32 1 -2 -6 -8 -11 -13 -11 -6 0 -5 8 1 20 13 24 43 26 65 4z m-395 -3 c0 -5
-7 -12 -16 -15 -14 -5 -15 -4 -4 9 14 17 20 19 20 6z"/>
<path d="M3190 1453 c-26 -12 -31 -17 -17 -20 23 -6 89 16 82 28 -8 13 -24 11
-65 -8z"/>
<path d="M3310 525 c0 -9 5 -15 11 -13 6 2 11 8 11 13 0 5 -5 11 -11 13 -6 2
-11 -4 -11 -13z"/>
<path d="M345 1980 c3 -5 17 -10 31 -10 13 0 24 5 24 10 0 6 -14 10 -31 10
-17 0 -28 -4 -24 -10z"/>
<path d="M3337 1956 c-18 -14 -17 -15 3 -21 13 -4 27 -2 34 5 8 9 7 11 -4 8
-8 -2 -14 3 -12 10 3 15 1 15 -21 -2z"/>
<path d="M237 1933 c-11 -11 -8 -23 7 -23 7 0 25 -9 39 -20 29 -23 45 -25 69
-6 16 11 13 15 -23 34 -41 22 -80 28 -92 15z"/>
<path d="M3375 1905 c-138 -23 -153 -33 -55 -35 54 -1 78 -4 65 -9 -11 -5 -23
-7 -27 -4 -17 9 -28 -8 -18 -28 6 -11 15 -17 21 -14 5 4 9 -1 9 -11 0 -14 7
-16 46 -10 28 3 43 2 39 -4 -3 -6 -5 -10 -3 -10 2 -1 20 -3 40 -6 31 -5 39 -2
49 18 7 13 12 27 11 31 -1 5 10 7 25 5 16 -2 29 2 30 7 2 10 -73 13 -83 3 -3
-3 -6 -15 -7 -27 -1 -11 -7 -21 -13 -21 -17 0 -25 28 -11 34 9 3 8 5 -1 5 -7
1 -22 -4 -32 -9 -12 -7 -27 -7 -45 0 -32 12 -23 34 11 26 18 -5 62 6 83 21 4
3 -48 54 -52 52 -1 -1 -38 -7 -82 -14z m80 -35 c-3 -5 -10 -10 -16 -10 -5 0
-9 5 -9 10 0 6 7 10 16 10 8 0 12 -4 9 -10z"/>
<path d="M3518 1893 c6 -2 18 -2 25 0 6 3 1 5 -13 5 -14 0 -19 -2 -12 -5z"/>
<path d="M3588 1893 c6 -2 18 -2 25 0 6 3 1 5 -13 5 -14 0 -19 -2 -12 -5z"/>
<path d="M304 1852 c3 -6 -2 -15 -11 -21 -17 -10 -17 -10 0 -11 9 0 17 4 17
10 0 5 6 7 14 4 8 -3 23 -1 33 5 17 10 16 10 -4 11 -12 0 -29 3 -39 7 -11 4
-15 3 -10 -5z"/>
<path d="M374 1823 c-12 -2 -30 -13 -40 -24 -9 -10 -26 -19 -37 -19 -20 0 -20
-1 2 -22 19 -17 37 -21 86 -22 53 -1 60 1 46 12 -14 12 -13 13 10 8 14 -3 29
-3 32 1 9 8 -75 52 -88 46 -5 -2 -1 3 9 11 20 16 19 17 -20 9z m-14 -33 c0 -5
-2 -10 -4 -10 -3 0 -8 5 -11 10 -3 6 -1 10 4 10 6 0 11 -4 11 -10z"/>
<path d="M690 1826 c0 -2 7 -7 16 -10 8 -3 12 -2 9 4 -6 10 -25 14 -25 6z"/>
<path d="M731 1807 c2 -1 13 -9 24 -17 19 -14 19 -14 6 3 -7 9 -18 17 -24 17
-6 0 -8 -1 -6 -3z"/>
<path d="M3040 1789 c0 -5 7 -9 15 -9 8 0 15 -4 15 -9 0 -5 8 -11 18 -15 9 -3
23 -9 30 -12 6 -3 12 1 12 9 0 8 -8 17 -17 21 -57 20 -73 24 -73 15z"/>
<path d="M3635 1790 c3 -5 11 -10 16 -10 6 0 7 5 4 10 -3 6 -11 10 -16 10 -6
0 -7 -4 -4 -10z"/>
<path d="M3345 1780 c-3 -5 1 -10 10 -10 9 0 13 5 10 10 -3 6 -8 10 -10 10 -2
0 -7 -4 -10 -10z"/>
<path d="M2213 1763 c9 -2 25 -2 35 0 9 3 1 5 -18 5 -19 0 -27 -2 -17 -5z"/>
<path d="M2935 1740 c-8 -13 5 -13 25 0 13 8 13 10 -2 10 -9 0 -20 -4 -23 -10z"/>
<path d="M3185 1730 c-3 -5 3 -10 14 -10 12 0 21 5 21 10 0 6 -6 10 -14 10 -8
0 -18 -4 -21 -10z"/>
<path d="M3230 1730 c0 -5 5 -10 10 -10 6 0 10 5 10 10 0 6 -4 10 -10 10 -5 0
-10 -4 -10 -10z"/>
<path d="M380 1711 c0 -5 18 -11 40 -13 28 -2 40 0 40 9 0 8 -14 13 -40 13
-22 0 -40 -4 -40 -9z"/>
<path d="M3005 1710 c3 -5 8 -10 11 -10 2 0 4 5 4 10 0 6 -5 10 -11 10 -5 0
-7 -4 -4 -10z"/>
<path d="M3055 1709 c-12 -18 1 -20 31 -4 l29 15 -27 0 c-15 0 -30 -5 -33 -11z"/>
<path d="M3168 1683 c7 -3 16 -2 19 1 4 3 -2 6 -13 5 -11 0 -14 -3 -6 -6z"/>
<path d="M3690 1660 c0 -5 5 -10 10 -10 6 0 10 5 10 10 0 6 -4 10 -10 10 -5 0
-10 -4 -10 -10z"/>
<path d="M2779 1568 c-1 -7 -1 -24 0 -38 1 -15 -1 -20 -6 -13 -5 6 -21 15 -37
19 -25 6 -28 4 -23 -10 4 -10 3 -15 -3 -11 -6 3 -10 1 -10 -4 0 -6 -7 -11 -15
-11 -8 0 -15 -4 -15 -10 0 -5 7 -10 15 -10 8 0 15 -4 15 -8 0 -4 15 -6 33 -4
23 3 41 15 64 45 17 22 29 46 26 54 -7 17 -43 17 -44 1z m-32 -74 c-3 -3 -12
-4 -19 -1 -8 3 -5 6 6 6 11 1 17 -2 13 -5z"/>
<path d="M2567 1553 c-9 -2 -15 -8 -12 -12 6 -11 55 -1 55 10 0 9 -13 10 -43
2z"/>
<path d="M2807 1486 c-3 -8 -2 -18 3 -21 13 -8 20 9 11 24 -6 10 -10 9 -14 -3z"/>
<path d="M2780 1465 c0 -11 -7 -14 -24 -9 -16 4 -34 0 -48 -10 -22 -16 -22
-16 15 -16 20 0 37 -4 37 -10 0 -5 6 -7 13 -4 12 4 23 64 12 64 -3 0 -5 -7 -5
-15z"/>
<path d="M388 1412 c-10 -2 -18 -8 -18 -13 0 -15 33 -24 38 -11 2 7 10 12 18
12 8 0 14 4 14 9 0 10 -17 10 -52 3z"/>
<path d="M118 1403 c7 -3 16 -2 19 1 4 3 -2 6 -13 5 -11 0 -14 -3 -6 -6z"/>
<path d="M315 1393 c-34 -8 -41 -23 -12 -23 15 0 27 4 27 9 0 5 8 12 18 14 23
6 -7 6 -33 0z"/>
<path d="M458 1387 c-16 -6 -28 -15 -28 -19 0 -5 12 -2 28 5 15 7 36 12 47 10
16 -3 17 -2 5 6 -17 12 -16 12 -52 -2z"/>
<path d="M1408 1380 c-80 -26 -94 -36 -112 -71 -27 -53 -21 -62 23 -35 22 14
52 27 68 30 15 2 28 5 28 6 0 1 9 3 20 5 11 2 35 7 53 10 19 3 47 15 64 25
l31 19 -38 15 c-47 20 -66 19 -137 -4z"/>
<path d="M2162 1362 c-31 -24 -18 -33 38 -26 40 5 50 3 75 -18 24 -21 26 -26
13 -38 -16 -15 -7 -55 23 -101 14 -20 18 -22 33 -10 9 7 16 19 15 25 0 6 -3 5
-6 -3 -4 -10 -43 77 -43 96 0 8 43 1 60 -9 15 -10 22 -10 32 0 9 9 9 12 -4 12
-8 0 -21 7 -29 16 -19 23 -102 63 -146 69 -28 4 -44 1 -61 -13z"/>
<path d="M2895 1300 c-3 -5 3 -10 14 -10 11 0 23 5 26 10 3 6 -3 10 -14 10
-11 0 -23 -4 -26 -10z"/>
<path d="M225 1291 c-19 -5 -29 -12 -26 -22 2 -8 4 -27 4 -42 0 -27 2 -28 36
-22 47 9 61 23 39 39 -21 16 -23 26 -5 26 7 0 21 6 31 13 16 11 14 13 -16 14
-18 0 -46 -2 -63 -6z"/>
<path d="M1450 1280 c-9 -6 -10 -10 -3 -10 6 0 18 -3 27 -6 11 -4 16 -1 16 10
0 18 -17 21 -40 6z"/>
<path d="M503 1272 c-25 -4 -73 -55 -74 -80 0 -9 -2 -24 -4 -33 -1 -9 5 -34
15 -56 13 -30 29 -46 61 -61 41 -20 53 -21 184 -13 l140 8 65 -31 c36 -18 66
-35 68 -39 1 -4 5 -7 8 -6 10 1 44 -54 44 -72 0 -8 11 -26 25 -39 29 -27 31
-48 10 -76 -8 -10 -15 -29 -15 -40 0 -12 -7 -27 -16 -35 -10 -8 -14 -22 -10
-40 4 -20 0 -29 -17 -38 -15 -8 -22 -22 -23 -43 -1 -18 -6 -34 -13 -36 -6 -2
-11 -14 -11 -26 0 -13 -9 -31 -20 -41 -12 -11 -18 -25 -15 -36 8 -24 -31 -49
-77 -49 -27 0 -38 -4 -38 -15 0 -23 -61 -28 -153 -11 -234 44 -507 180 -507
252 0 27 -12 31 -30 9 -10 -12 -10 -18 0 -30 9 -10 9 -15 1 -15 -6 0 -11 5
-11 10 0 6 -5 10 -11 10 -6 0 -9 -6 -6 -14 6 -14 -12 -26 -39 -26 -20 0 -7 24
19 35 33 15 34 43 2 51 -28 7 -62 -14 -38 -23 10 -4 9 -11 -2 -32 -11 -22 -14
-86 -15 -310 l-1 -281 1293 1 c711 1 1287 3 1281 6 -13 5 -19 43 -7 43 4 0 12
-7 18 -15 9 -12 17 -13 49 -3 20 6 37 15 37 19 0 11 -33 21 -39 11 -11 -16
-41 -22 -41 -8 0 8 -6 17 -12 19 -7 3 1 4 17 1 22 -3 38 3 60 21 23 19 26 25
13 25 -10 0 -18 -4 -18 -10 0 -5 -5 -10 -11 -10 -21 0 13 30 35 31 11 0 15 3
9 6 -18 7 -16 24 5 39 16 11 15 13 -10 23 -15 6 -41 8 -58 6 -39 -5 -39 14 0
22 30 6 52 23 29 23 -7 0 -5 8 7 21 16 17 16 22 4 30 -11 7 -7 8 12 3 26 -6
27 -5 15 20 -7 14 -17 26 -24 26 -6 0 -13 8 -16 18 -3 13 -6 11 -15 -11 -8
-19 -16 -26 -24 -20 -7 4 -20 8 -28 8 -8 0 -16 10 -18 22 -3 19 -9 21 -50 20
l-47 -2 1 -65 c1 -36 5 -88 9 -116 7 -46 5 -53 -14 -66 -28 -20 -148 -13 -174
10 -17 15 -24 72 -9 86 4 4 7 13 7 19 0 7 8 11 18 9 18 -3 24 23 7 33 -15 9
-12 45 4 45 24 0 28 18 11 50 -11 21 -36 40 -83 62 -37 18 -69 33 -72 33 -3 1
-24 7 -48 15 -32 10 -48 11 -67 2 -22 -10 -24 -15 -15 -32 6 -11 15 -20 21
-20 14 0 60 -51 54 -61 -7 -10 -57 25 -114 79 -24 23 -47 42 -51 42 -4 0 -22
23 -40 50 -38 59 -47 65 -119 74 -30 4 -63 12 -73 17 -24 13 -88 -6 -88 -26 0
-7 -6 -16 -12 -18 -7 -3 3 -3 22 0 29 5 33 3 23 -8 -18 -18 -16 -26 7 -32 11
-3 20 -11 20 -17 0 -9 -4 -9 -17 1 -12 10 -15 11 -9 1 24 -41 -62 -56 -129
-22 l-40 19 43 -39 c41 -36 42 -39 23 -49 -25 -14 -91 -14 -125 -1 -34 13 -33
38 4 85 35 44 34 38 14 94 -14 41 -14 67 2 119 5 18 3 21 -10 16 -9 -3 -16 -1
-16 5 0 6 11 11 24 11 16 0 31 12 50 41 26 38 27 44 17 87 -6 26 -12 66 -13
90 -1 33 -5 42 -19 42 -9 0 -20 -7 -23 -16 -3 -8 -10 -13 -15 -10 -5 4 -19 -6
-31 -21 -14 -19 -23 -24 -26 -15 -3 6 -15 12 -25 12 -11 0 -17 5 -14 10 3 6 2
10 -4 10 -5 0 -16 3 -25 6 -11 4 -16 1 -16 -10 0 -22 -17 -20 -23 2 -4 16 -5
16 -6 0 -1 -11 -6 -15 -15 -12 -8 3 -12 12 -9 20 3 8 -1 14 -8 14 -16 0 -49
-19 -34 -20 6 0 2 -5 -8 -11 -20 -12 -13 -31 8 -22 8 3 15 0 15 -6 0 -6 -11
-11 -25 -11 -16 0 -25 6 -25 15 0 12 -5 13 -17 7 -26 -12 -56 -9 -61 6 -2 8 2
12 13 10 10 -2 20 3 23 10 3 10 -9 13 -50 11 -76 -3 -85 5 -50 49 30 40 56 92
48 99 -10 10 -27 -10 -51 -57 -23 -46 -58 -80 -80 -80 -5 0 -3 6 6 13 26 20
59 80 59 108 0 25 -4 28 -63 38 -35 6 -75 11 -89 11 -50 0 -122 -39 -171 -93
-34 -38 -44 -45 -36 -25 15 35 4 78 -20 78 -13 0 -23 11 -31 34 -17 53 -54 76
-107 68z m582 -292 c-3 -5 -10 -10 -16 -10 -5 0 -9 5 -9 10 0 6 7 10 16 10 8
0 12 -4 9 -10z m5 -60 c0 -13 -46 -24 -62 -14 -9 6 -4 11 17 15 45 10 45 10
45 -1z m265 -30 c-3 -5 -11 -10 -16 -10 -6 0 -7 5 -4 10 3 6 11 10 16 10 6 0
7 -4 4 -10z m-5 -121 c0 -14 -17 -10 -23 5 -4 10 -1 13 9 9 7 -3 14 -9 14 -14z
m63 4 c-7 -2 -19 -2 -25 0 -7 3 -2 5 12 5 14 0 19 -2 13 -5z m-76 -156 c3 -4
-10 -7 -29 -7 -20 0 -50 -3 -68 -7 -25 -4 -31 -3 -26 6 5 7 14 10 20 8 7 -3
18 -2 23 1 14 9 71 7 80 -1z m390 -249 c13 -12 23 -32 23 -45 0 -13 -1 -23 -3
-23 -1 0 -16 -4 -34 -9 -28 -8 -34 -6 -48 15 -18 28 -11 71 13 77 10 3 19 5
21 6 3 0 15 -9 28 -21z m513 -37 c0 -15 -39 -19 -51 -5 -9 11 -6 14 20 14 17
0 31 -4 31 -9z m-860 -195 c-15 -15 -33 4 -19 20 10 12 14 12 20 2 5 -7 4 -17
-1 -22z m65 24 c3 -5 1 -10 -4 -10 -6 0 -11 5 -11 10 0 6 2 10 4 10 3 0 8 -4
11 -10z m-9 -37 c13 -16 24 -36 24 -45 0 -23 -36 -24 -44 -2 -3 8 -10 12 -16
9 -15 -9 -12 5 5 22 12 12 13 18 4 29 -22 27 4 14 27 -13z m-146 1 c0 -8 -4
-12 -10 -9 -5 3 -10 10 -10 16 0 5 5 9 10 9 6 0 10 -7 10 -16z m-35 -13 c3 -5
0 -13 -6 -17 -7 -4 -9 -3 -5 4 3 5 0 13 -6 15 -9 4 -10 6 -1 6 6 1 14 -3 18
-8z m106 -38 c-8 -15 -10 -15 -11 -2 0 17 10 32 18 25 2 -3 -1 -13 -7 -23z
m734 -3 c-3 -5 -14 -10 -23 -10 -15 0 -15 2 -2 10 20 13 33 13 25 0z"/>
<path d="M2950 1230 c0 -5 5 -10 11 -10 5 0 7 5 4 10 -3 6 -8 10 -11 10 -2 0
-4 -4 -4 -10z"/>
<path d="M1368 1201 c-1 -6 -27 -11 -55 -13 -29 -2 -53 -6 -53 -10 0 -16 -61
-38 -104 -38 -41 0 -66 -13 -52 -27 3 -3 27 -8 54 -11 36 -3 51 0 61 12 7 9
10 16 5 16 -4 0 1 7 12 15 10 8 40 15 65 15 48 0 103 30 81 43 -5 4 -12 3 -14
-2z"/>
<path d="M2909 1206 c0 -1 -2 -13 -3 -28 -1 -17 3 -28 11 -28 7 0 13 7 13 15
0 19 14 19 28 2 14 -16 -11 -57 -34 -57 -8 0 -14 -4 -14 -10 0 -5 5 -10 10
-10 6 0 10 -7 10 -16 0 -14 3 -14 15 -4 12 10 15 10 15 0 0 -9 4 -10 13 -2 7
6 24 8 37 5 19 -5 22 -3 17 11 -4 10 -7 22 -7 28 0 6 -8 4 -18 -5 -26 -24 -32
-21 -32 13 0 17 5 30 10 30 18 0 11 18 -10 25 -11 3 -19 11 -17 17 1 8 -38 20
-44 14z"/>
<path d="M1405 1178 c-8 -10 -11 -19 -7 -19 27 -5 62 -4 62 2 0 4 12 10 27 14
23 5 25 8 12 15 -25 14 -77 7 -94 -12z"/>
<path d="M1142 1179 c-13 -5 -21 -13 -18 -18 7 -10 56 -2 56 10 0 14 -14 17
-38 8z"/>
<path d="M1490 1160 c-13 -9 -13 -11 0 -20 23 -15 42 -12 38 7 -4 21 -19 26
-38 13z"/>
<path d="M10 1105 c-7 -8 -9 -15 -6 -15 4 0 14 7 22 15 9 8 11 15 6 15 -5 0
-15 -7 -22 -15z"/>
<path d="M100 1111 c0 -7 6 -11 13 -10 25 3 35 -1 41 -18 3 -10 11 -26 18 -36
11 -14 10 -19 -2 -27 -12 -8 -12 -12 -2 -18 10 -7 10 -11 -3 -22 -13 -11 -14
-10 -9 4 6 14 2 16 -21 10 -23 -6 -27 -4 -22 8 5 13 1 14 -29 5 -27 -8 -31
-13 -22 -24 12 -15 4 -28 -18 -28 -7 0 -14 -3 -14 -7 0 -35 1 -42 8 -33 13 19
73 45 102 45 33 0 40 8 46 52 2 18 10 36 19 40 36 21 4 56 -59 64 -32 5 -46 3
-46 -5z"/>
<path d="M1475 1070 c-3 -5 1 -10 9 -10 8 0 18 5 21 10 3 6 -1 10 -9 10 -8 0
-18 -4 -21 -10z"/>
<path d="M1330 1059 c0 -8 11 -14 25 -14 14 0 25 3 25 8 0 4 -4 7 -9 7 -5 0
-16 3 -25 6 -10 4 -16 1 -16 -7z"/>
<path d="M3010 1050 c0 -5 5 -10 10 -10 6 0 10 5 10 10 0 6 -4 10 -10 10 -5 0
-10 -4 -10 -10z"/>
<path d="M90 1039 c0 -5 5 -7 10 -4 6 3 10 8 10 11 0 2 -4 4 -10 4 -5 0 -10
-5 -10 -11z"/>
<path d="M1155 1020 c3 -5 10 -10 16 -10 5 0 9 5 9 10 0 6 -7 10 -16 10 -8 0
-12 -4 -9 -10z"/>
<path d="M1390 1021 c0 -5 5 -13 10 -16 6 -3 10 -2 10 4 0 5 -4 13 -10 16 -5
3 -10 2 -10 -4z"/>
<path d="M2505 1020 c3 -5 10 -10 16 -10 5 0 9 5 9 10 0 6 -7 10 -16 10 -8 0
-12 -4 -9 -10z"/>
<path d="M2590 994 c1 -16 70 -44 108 -44 20 0 45 7 55 14 15 12 10 14 -45 20
-35 4 -75 10 -90 13 -16 3 -28 2 -28 -3z"/>
<path d="M18 973 c7 -3 16 -2 19 1 4 3 -2 6 -13 5 -11 0 -14 -3 -6 -6z"/>
<path d="M46 901 c-4 -5 1 -8 9 -7 21 3 31 16 12 16 -9 0 -18 -4 -21 -9z"/>
<path d="M0 779 c0 -69 4 -119 10 -119 11 0 50 40 50 51 0 5 10 19 23 31 13
13 22 29 19 36 -6 20 -22 13 -23 -10 l0 -23 -10 23 c-11 28 -4 42 20 42 18 0
41 18 41 33 0 4 -4 5 -10 2 -5 -3 -7 0 -4 9 4 11 -3 17 -23 21 -15 3 -43 10
-60 14 l-33 9 0 -119z"/>
<path d="M3097 773 c-9 -2 -15 -9 -12 -14 9 -14 32 -11 39 6 6 15 4 16 -27 8z"/>
<path d="M1831 739 c-39 -7 -60 -21 -61 -39 0 -11 93 -46 133 -49 5 -1 6 -5 3
-10 -11 -18 54 5 81 29 15 14 31 24 36 22 4 -1 7 8 7 21 0 13 -6 24 -12 24 -7
0 -42 2 -78 6 -36 3 -85 1 -109 -4z"/>
<path d="M2488 673 c7 -3 16 -2 19 1 4 3 -2 6 -13 5 -11 0 -14 -3 -6 -6z"/>
<path d="M2410 605 c0 -8 7 -15 15 -15 9 0 12 6 9 15 -4 8 -10 15 -15 15 -5 0
-9 -7 -9 -15z"/>
<path d="M2466 565 c-11 -8 -15 -15 -10 -15 6 0 19 7 30 15 10 8 15 14 9 14
-5 0 -19 -6 -29 -14z"/>
<path d="M2570 570 c0 -5 5 -10 10 -10 6 0 10 5 10 10 0 6 -4 10 -10 10 -5 0
-10 -4 -10 -10z"/>
<path d="M2498 503 c7 -3 16 -2 19 1 4 3 -2 6 -13 5 -11 0 -14 -3 -6 -6z"/>
<path d="M395 492 c30 -28 236 -89 325 -95 30 -3 44 -3 30 0 -70 12 -239 57
-298 79 -37 14 -62 21 -57 16z"/>
<path d="M638 483 c7 -3 16 -2 19 1 4 3 -2 6 -13 5 -11 0 -14 -3 -6 -6z"/>
<path d="M788 453 c6 -2 18 -2 25 0 6 3 1 5 -13 5 -14 0 -19 -2 -12 -5z"/>
<path d="M2450 430 c0 -16 4 -30 8 -30 5 0 9 14 9 30 0 17 -4 30 -9 30 -4 0
-8 -13 -8 -30z"/>
<path d="M3058 363 c7 -3 16 -2 19 1 4 3 -2 6 -13 5 -11 0 -14 -3 -6 -6z"/>
<path d="M3090 330 c0 -5 5 -10 10 -10 6 0 10 5 10 10 0 6 -4 10 -10 10 -5 0
-10 -4 -10 -10z"/>
<path d="M2975 150 c4 -6 11 -8 16 -5 14 9 11 15 -7 15 -8 0 -12 -5 -9 -10z"/>
<path d="M2676 14 c-17 -12 -17 -14 -4 -14 9 0 20 5 23 11 11 17 2 18 -19 3z"/>
<path d="M2913 3 c9 -2 23 -2 30 0 6 3 -1 5 -18 5 -16 0 -22 -2 -12 -5z"/>
</g>
</svg>
