<?xml version="1.0" standalone="no"?>
<!DOCTYPE svg PUBLIC "-//W3C//DTD SVG 20010904//EN"
 "http://www.w3.org/TR/2001/REC-SVG-20010904/DTD/svg10.dtd">
<svg version="1.0" xmlns="http://www.w3.org/2000/svg"
 width="1280.000000pt" height="1498.000000pt" viewBox="0 0 1280.000000 1498.000000"
 preserveAspectRatio="xMidYMid meet">

<g transform="translate(0.000000,1498.000000) scale(0.100000,-0.100000)"
fill="#000000" stroke="none">
<path d="M6910 14453 c-487 -51 -928 -185 -1150 -349 -33 -24 -64 -44 -69 -44
-4 0 -28 13 -52 30 -55 37 -80 38 -96 3 -11 -23 -8 -37 22 -112 85 -215 119
-385 146 -741 22 -300 35 -778 21 -798 -5 -7 -63 -24 -128 -37 -65 -13 -174
-37 -241 -54 -105 -25 -283 -49 -373 -48 -25 0 -110 -14 -205 -33 -27 -6 -61
-12 -75 -14 -97 -13 -168 -54 -189 -109 -13 -35 -12 -41 10 -88 13 -28 36 -62
52 -75 16 -13 24 -24 18 -24 -5 0 -13 5 -16 10 -3 6 -13 10 -21 10 -10 0 -14
-14 -14 -58 0 -50 5 -66 30 -100 85 -117 244 -139 1080 -149 696 -7 1035 9
1485 71 61 9 180 25 265 36 396 53 754 128 872 183 58 26 79 42 102 77 25 39
28 49 23 102 -9 106 -55 148 -220 204 -59 20 -81 32 -91 52 -18 35 -62 75
-104 96 -72 37 -388 82 -524 75 -26 -2 -49 -1 -52 2 -2 2 -13 114 -25 249 -22
254 -43 436 -63 530 -14 70 -11 132 12 250 21 112 50 201 91 281 25 51 37 63
88 89 105 53 160 152 148 268 -11 107 -109 178 -287 207 -88 14 -369 19 -470
8z m408 -104 c77 -9 175 -39 195 -58 5 -5 -39 -12 -96 -16 -87 -6 -110 -4
-136 10 -18 9 -67 25 -109 36 -64 17 -94 19 -184 13 -153 -9 -196 6 -58 21
112 12 252 10 388 -6z m-226 -108 c11 -4 -52 -16 -149 -29 -92 -13 -208 -29
-258 -37 -255 -41 -661 -78 -640 -58 48 46 325 113 550 133 98 9 467 2 497 -9z
m327 -55 c-2 -2 -17 -6 -34 -10 -22 -5 -26 -4 -15 4 14 9 59 15 49 6z m-112
-35 c-5 -32 -24 -47 -114 -91 -103 -50 -247 -97 -443 -146 -141 -35 -149 -36
-280 -30 -143 6 -317 30 -465 65 -110 26 -207 60 -200 72 3 4 30 21 60 37 l55
30 15 -27 c17 -35 69 -51 161 -51 86 0 472 36 539 50 61 13 386 59 473 67 34
3 65 10 68 14 3 5 24 9 47 10 23 0 51 4 62 9 11 5 21 9 22 9 2 1 2 -8 0 -18z
m173 10 c0 -9 -65 -120 -78 -132 -4 -4 -32 -17 -62 -29 l-55 -21 44 45 c34 35
46 55 50 88 6 41 8 43 46 49 22 3 43 7 48 8 4 0 7 -3 7 -8z m-1297 -108 c-7
-2 -21 -2 -30 0 -10 3 -4 5 12 5 17 0 24 -2 18 -5z m-321 -158 c16 4 19 4 9
-3 -11 -8 -10 -11 7 -16 11 -4 24 -6 28 -4 13 3 204 -34 204 -39 0 -3 -51 -3
-112 -1 -117 5 -211 29 -249 64 -33 30 -21 34 36 13 32 -12 64 -18 77 -14z
m1442 -145 c-19 -74 -36 -139 -37 -145 -2 -5 -16 15 -32 45 -15 30 -54 81 -86
112 -33 32 -59 59 -59 61 0 3 21 7 48 11 26 3 81 17 122 29 41 13 76 23 77 23
0 -1 -14 -62 -33 -136z m-356 113 c-10 -2 -26 -2 -35 0 -10 3 -2 5 17 5 19 0
27 -2 18 -5z m-15 -60 c-7 -2 -19 -2 -25 0 -7 3 -2 5 12 5 14 0 19 -2 13 -5z
m-1058 -68 c42 -9 126 -15 210 -15 l140 -1 -59 -32 c-111 -60 -197 -158 -309
-349 -34 -59 -87 -215 -88 -264 -2 -33 -3 -34 -6 -10 -3 15 3 58 12 95 13 56
14 83 5 181 -15 164 -29 262 -51 365 -10 49 -19 90 -19 91 0 0 21 -10 48 -23
26 -12 79 -30 117 -38z m805 59 c0 -14 -36 -33 -63 -34 -36 0 -175 -28 -206
-41 -24 -10 -61 -4 -61 10 0 5 30 11 67 15 36 4 71 10 77 14 10 6 141 37 174
41 6 0 12 -2 12 -5z m361 -64 c45 -23 89 -58 89 -71 0 -4 -23 0 -51 8 -41 12
-62 13 -106 4 -52 -10 -55 -9 -94 19 -22 16 -46 31 -52 33 -18 6 -3 18 35 28
50 13 131 3 179 -21z m-258 -97 l29 -14 -68 -45 c-37 -24 -86 -60 -110 -79
-23 -19 -47 -35 -52 -35 -6 0 -18 23 -27 51 -16 48 -16 51 1 64 11 7 39 29 64
48 40 33 49 35 90 30 25 -3 58 -12 73 -20z m-372 -72 c-5 -9 -19 -25 -32 -36
-72 -65 -299 -383 -355 -498 l-32 -68 -12 37 c-7 21 -10 63 -8 99 13 159 218
417 389 489 39 17 65 5 50 -23z m90 -33 c15 -28 5 -21 -21 15 -15 20 -17 27
-6 18 9 -8 22 -23 27 -33z m574 21 c51 -14 100 -61 121 -116 14 -35 15 -50 5
-89 -33 -132 -151 -282 -307 -390 -70 -49 -240 -124 -279 -124 -15 1 -9 10 30
43 181 152 287 290 332 435 22 71 25 95 20 168 -5 95 -5 96 78 73z m-148 -81
c10 -93 -83 -265 -207 -382 -73 -68 -197 -166 -212 -166 -5 0 -2 12 5 28 29
57 61 202 72 326 3 42 9 53 41 80 109 90 270 184 287 167 5 -5 11 -29 14 -53z
m-913 -54 c-66 -97 -101 -178 -114 -259 -14 -90 -5 -173 27 -233 24 -44 24
-50 12 -102 -7 -30 -15 -59 -19 -63 -11 -13 -68 59 -79 100 -6 21 -11 73 -11
117 0 141 83 342 199 482 41 49 35 33 -15 -42z m472 65 c4 -6 10 -28 15 -48 8
-34 5 -39 -35 -81 -68 -71 -142 -173 -178 -247 -32 -65 -33 -72 -33 -184 l1
-117 -51 15 c-52 16 -107 41 -139 66 -19 14 -17 18 33 111 28 54 78 137 110
184 63 94 245 312 261 312 5 0 12 -5 16 -11z m-749 -36 c-3 -10 -5 -4 -5 12 0
17 2 24 5 18 2 -7 2 -21 0 -30z m1550 -35 c-3 -7 -5 -2 -5 12 0 14 2 19 5 13
2 -7 2 -19 0 -25z m-1540 -85 c-3 -10 -5 -2 -5 17 0 19 2 27 5 18 2 -10 2 -26
0 -35z m1550 5 c-3 -7 -5 -2 -5 12 0 14 2 19 5 13 2 -7 2 -19 0 -25z m31 -198
c0 -14 -6 2 -14 35 -7 33 -13 80 -12 105 0 37 3 32 13 -35 8 -44 13 -91 13
-105z m-805 128 c-6 -7 -13 -33 -17 -58 -12 -80 -48 -183 -99 -285 -45 -91
-50 -98 -63 -80 -24 32 -18 132 11 194 23 48 161 241 173 241 2 0 0 -6 -5 -12z
m725 -160 c3 -109 17 -259 37 -411 18 -128 18 -130 5 -122 -13 8 -299 -11
-473 -31 -216 -24 -608 -87 -815 -130 -24 -5 -38 -2 -52 11 -11 10 -42 20 -70
23 l-50 5 0 134 0 134 40 -33 c30 -25 40 -40 40 -63 0 -71 43 -144 100 -175
32 -17 101 -4 151 29 54 37 166 148 185 183 11 22 23 28 61 32 200 24 309 56
467 139 83 43 118 69 202 152 61 60 115 123 134 158 17 31 33 57 34 57 1 0 3
-42 4 -92z m-1321 50 c-3 -7 -5 -2 -5 12 0 14 2 19 5 13 2 -7 2 -19 0 -25z
m1420 -285 c-3 -10 -5 -2 -5 17 0 19 2 27 5 18 2 -10 2 -26 0 -35z m-1229
-135 c-17 -10 -115 -10 -122 0 -3 5 0 24 6 44 l10 35 60 -35 c41 -25 55 -38
46 -44z m1239 20 c-2 -13 -4 -3 -4 22 0 25 2 35 4 23 2 -13 2 -33 0 -45z m-10
-145 c-2 -16 -4 -5 -4 22 0 28 2 40 4 28 2 -13 2 -35 0 -50z m-1194 -7 c-9
-14 -87 -46 -113 -46 -29 0 -50 16 -50 40 0 12 15 15 84 15 46 0 82 -4 79 -9z
m1216 -170 c1 -79 -6 -49 -12 49 -4 63 -3 77 3 45 5 -25 9 -67 9 -94z m-51 29
c3 -19 -3 -20 -211 -19 -203 0 -383 -12 -534 -35 -75 -11 -234 -23 -218 -16 6
2 39 9 75 14 36 6 108 17 160 25 163 25 536 54 675 52 42 -1 50 -4 53 -21z
m337 0 c113 -13 244 -40 233 -49 -1 -2 -32 0 -68 5 -36 4 -138 11 -227 15
-157 7 -163 8 -163 28 0 25 9 25 225 1z m-285 -140 c21 -19 30 -19 44 1 10 13
29 14 156 5 218 -15 383 -32 399 -41 36 -19 -42 -29 -314 -39 l-289 -11 -35
23 c-85 57 -111 64 -218 66 -55 1 -104 -2 -107 -7 -2 -4 27 -18 67 -30 40 -12
88 -32 107 -44 l35 -23 -45 -2 c-25 -2 -146 -12 -270 -22 -124 -10 -238 -19
-255 -19 -16 -1 -61 -5 -100 -10 -38 -6 -126 -13 -194 -17 l-124 -8 29 37 c16
20 34 36 41 36 16 0 22 22 11 43 -14 28 -46 20 -67 -15 -11 -18 -31 -49 -45
-70 l-26 -36 -115 -7 c-63 -4 -131 -4 -152 0 l-38 7 35 29 c19 16 45 29 57 29
13 0 23 6 23 13 0 6 15 17 33 23 17 6 69 24 115 39 46 15 81 29 78 32 -2 3
-67 -1 -143 -8 -100 -8 -154 -18 -197 -35 -71 -29 -78 -29 -74 -7 2 12 29 23
93 40 74 20 132 25 330 33 357 15 478 17 824 14 265 -3 316 -6 331 -19z m748
-26 c-4 -28 -1 -33 31 -46 98 -39 163 -76 174 -100 10 -23 8 -28 -18 -49 -55
-44 -315 -124 -513 -159 l-76 -13 -49 54 c-44 49 -53 54 -81 49 -17 -3 -41 -7
-53 -8 -35 -2 -28 -22 22 -63 25 -20 45 -40 45 -44 0 -9 -18 -12 -280 -49
-260 -38 -330 -45 -330 -37 0 4 7 21 16 37 8 17 14 42 12 57 -3 29 -43 20 344
78 86 13 129 23 133 33 4 11 3 12 -10 1 -12 -10 -15 -10 -15 2 0 12 21 18 82
26 45 6 86 8 91 5 4 -2 37 3 74 12 36 9 74 14 84 12 11 -3 19 -2 19 1 0 4 21
7 48 8 26 0 77 4 114 9 98 11 104 21 108 165 1 35 7 50 21 50 7 0 10 -12 7
-31z m-2763 -50 c-229 -74 -335 -139 -335 -205 0 -37 39 -93 83 -117 l32 -19
-70 7 c-141 13 -365 75 -365 100 0 14 272 135 370 165 58 18 114 36 125 40 35
15 -62 11 -165 -6 -128 -22 -134 -22 -220 -28 -93 -7 -46 9 70 23 148 18 326
41 385 50 33 5 80 9 105 9 l45 0 -60 -19z m345 -29 c0 -24 -8 -33 -47 -56 -71
-39 -245 -153 -270 -176 -21 -19 -27 -20 -105 -8 -46 6 -102 20 -125 30 -44
20 -56 44 -25 53 9 3 62 25 117 50 56 24 125 50 155 57 30 8 59 17 65 22 5 4
18 8 30 8 11 0 56 11 100 25 103 31 105 31 105 -5z m-930 -59 c0 -5 -17 -16
-38 -24 -21 -9 -52 -27 -69 -41 -36 -30 -48 -32 -57 -10 -14 36 -6 49 42 65
52 19 122 24 122 10z m939 -145 l-32 -46 -91 0 -91 0 55 35 c30 19 79 47 108
62 49 26 52 30 47 58 -4 23 -1 19 16 -17 l21 -47 -33 -45z m394 87 c-7 -2 -19
-2 -25 0 -7 3 -2 5 12 5 14 0 19 -2 13 -5z m75 0 c-10 -2 -28 -2 -40 0 -13 2
-5 4 17 4 22 1 32 -1 23 -4z m782 -3 c11 -7 12 -10 2 -10 -8 0 -68 -7 -135
-15 -67 -8 -156 -17 -197 -19 -41 -3 -131 -12 -199 -20 -69 -9 -167 -19 -218
-22 -79 -6 -93 -5 -93 8 0 12 22 16 113 22 141 8 564 47 702 64 6 1 17 -3 25
-8z m-1114 -66 c37 -6 102 -10 152 -7 83 5 86 4 70 -12 -13 -14 -42 -20 -120
-26 -171 -13 -228 -16 -228 -10 0 3 12 17 27 33 23 24 24 29 12 45 -13 17 -13
17 4 4 10 -8 47 -20 83 -27z m1614 6 c0 -6 -12 -10 -27 -9 -16 1 -36 -2 -45
-6 -11 -4 -18 -3 -18 3 0 11 25 18 68 21 12 0 22 -4 22 -9z m-493 -154 l-20
-63 -116 -12 c-150 -15 -405 -31 -410 -25 -2 2 8 22 23 45 15 22 26 43 23 45
-12 12 -55 -18 -76 -54 l-24 -39 -135 -7 c-195 -9 -302 -8 -302 4 0 6 4 10 9
10 9 0 24 30 18 37 -10 9 -56 -18 -62 -36 -6 -20 -14 -21 -171 -21 -157 0
-164 1 -164 20 0 25 -16 26 -29 3 -8 -16 -24 -18 -154 -15 -123 3 -145 5 -140
18 7 20 -66 19 -81 -1 -10 -14 -29 -14 -156 -5 -207 16 -299 40 -357 93 -28
25 -32 63 -5 52 9 -4 29 -11 43 -15 14 -4 36 -13 48 -19 30 -16 163 -50 241
-61 231 -33 590 -31 1006 5 95 8 185 12 202 9 17 -4 39 0 53 7 13 8 58 17 99
21 41 4 109 12 150 18 41 6 116 13 165 15 50 1 135 10 190 18 55 8 112 15 127
16 l26 1 -21 -64z m-1620 -12 c-3 -3 -12 -4 -19 -1 -8 3 -5 6 6 6 11 1 17 -2
13 -5z m101 -1 c-15 -2 -42 -2 -60 0 -18 2 -6 4 27 4 33 0 48 -2 33 -4z"/>
<path d="M12360 12099 c0 -5 5 -7 10 -4 6 3 10 8 10 11 0 2 -4 4 -10 4 -5 0
-10 -5 -10 -11z"/>
<path d="M7741 11809 c-24 -5 -46 -10 -48 -12 -2 -3 17 -40 43 -83 63 -106
177 -345 213 -449 41 -115 63 -303 45 -372 -5 -18 -11 -22 -29 -17 -18 4 -29
-1 -47 -22 -13 -15 -59 -67 -103 -116 -199 -220 -281 -336 -307 -431 -11 -42
-10 -51 7 -83 10 -19 23 -33 29 -31 6 2 11 28 12 58 1 96 86 229 280 439 152
165 167 162 119 -23 -48 -185 -131 -361 -263 -562 -67 -101 -115 -159 -217
-261 -71 -71 -168 -158 -215 -192 -47 -34 -103 -77 -125 -95 -22 -19 -85 -59
-140 -90 -225 -126 -440 -187 -665 -187 -125 0 -247 13 -285 29 -11 4 -51 16
-90 25 -88 21 -271 109 -350 168 -129 96 -271 250 -391 423 -141 205 -250 502
-284 778 l-11 89 62 116 c73 138 209 352 367 580 103 149 129 197 87 162 -8
-7 -52 -65 -98 -129 -45 -63 -92 -129 -104 -146 -53 -72 -233 -346 -269 -407
-21 -38 -42 -68 -48 -68 -27 0 20 321 68 463 27 80 94 221 127 269 25 35 24
38 -13 38 -29 0 -37 -7 -70 -58 -80 -125 -156 -349 -178 -522 -31 -257 20
-620 125 -885 106 -267 307 -549 506 -710 125 -100 310 -198 447 -234 23 -7
42 -15 42 -20 0 -4 -19 -37 -41 -72 -106 -163 -240 -279 -934 -803 -303 -228
-509 -359 -761 -481 -292 -142 -484 -185 -834 -185 -158 0 -280 17 -476 65
-189 47 -226 45 -190 -7 13 -18 44 -29 163 -55 279 -62 489 -81 698 -63 513
44 859 230 1845 989 327 252 489 406 555 532 20 38 37 69 38 69 1 0 38 -7 82
-16 48 -10 128 -16 198 -16 136 1 129 9 98 -123 -78 -327 -93 -447 -121 -975
-23 -447 -48 -808 -60 -865 -5 -22 -12 -87 -16 -145 -3 -58 -8 -114 -9 -125
-41 -284 -98 -1105 -120 -1725 -14 -385 -61 -1158 -81 -1317 -4 -36 -9 -43
-27 -43 -32 0 -161 -64 -232 -114 -95 -68 -244 -233 -308 -341 -37 -62 -42
-76 -42 -133 0 -60 2 -64 40 -101 22 -21 55 -58 74 -81 23 -28 56 -53 99 -73
64 -30 64 -30 200 -24 233 9 345 50 468 172 61 60 73 78 84 124 7 32 10 77 7
111 -9 82 -61 237 -99 294 -35 54 -99 105 -141 113 -16 3 -31 12 -34 20 -3 7
4 154 16 326 31 463 44 701 72 1367 13 323 45 860 52 866 2 3 10 -39 17 -93
31 -253 94 -559 207 -1008 158 -628 308 -1071 502 -1480 34 -71 60 -129 59
-130 -2 -1 -27 -15 -55 -30 -74 -39 -167 -139 -204 -220 -69 -146 -21 -300
121 -388 19 -12 48 -36 64 -55 58 -66 159 -95 258 -72 49 10 198 73 293 122
53 28 88 61 111 106 11 20 34 57 53 82 19 25 50 79 70 120 31 65 36 85 36 150
0 118 -44 183 -160 237 -57 27 -67 28 -205 27 -119 0 -159 -4 -224 -22 -63
-18 -81 -20 -88 -10 -62 97 -224 462 -311 703 -113 314 -177 536 -296 1030
-110 455 -169 770 -177 945 -7 135 -10 149 -37 161 -18 8 -22 17 -20 42 2 18
12 133 23 257 11 124 24 271 30 327 20 217 30 368 40 633 25 658 52 905 136
1229 9 36 14 82 11 103 -5 34 -3 38 17 38 12 0 56 9 97 20 92 24 98 24 92 1
-15 -59 79 -286 206 -496 303 -500 727 -869 1118 -971 331 -86 691 -68 1261
61 86 20 191 43 232 51 41 8 85 17 97 20 33 6 59 50 43 69 -17 21 -55 19 -151
-9 -193 -56 -385 -100 -569 -130 -371 -61 -713 -48 -970 36 -201 65 -470 250
-650 445 -34 37 -67 67 -72 65 -5 -1 -7 1 -4 6 2 4 -32 53 -76 108 -45 54
-110 144 -146 199 -35 55 -78 120 -94 145 -53 80 -137 263 -154 335 -9 39 -21
76 -27 83 -12 15 -12 16 43 31 66 18 313 141 405 201 322 210 580 506 763 876
94 189 152 431 152 633 0 165 -25 260 -125 483 -51 112 -170 334 -183 341 -4
2 -27 0 -51 -4z m-2696 -229 c-9 -16 -18 -30 -21 -30 -2 0 2 14 11 30 9 17 18
30 21 30 2 0 -2 -13 -11 -30z m2944 -235 c0 -5 -8 6 -19 25 -11 19 -19 40 -19
45 0 6 8 -6 19 -25 11 -19 19 -39 19 -45z m-3092 -513 c-9 -21 -18 -46 -20
-57 -4 -16 -5 -15 -6 5 0 14 6 38 14 54 8 15 15 36 16 45 0 11 2 12 6 3 3 -8
-2 -30 -10 -50z m1220 -5604 c-1 -40 -3 -8 -3 72 0 80 2 112 3 73 2 -40 2
-106 0 -145z m-12 -265 c-4 -104 -13 -262 -20 -353 -15 -177 -13 -122 7 288 7
138 14 252 16 252 3 0 1 -84 -3 -187z m-45 -748 c-7 -99 -17 -189 -22 -200 -7
-17 -8 -16 -4 5 3 14 11 115 18 225 7 110 14 189 17 175 2 -14 -2 -106 -9
-205z m108 -491 c48 -33 122 -224 122 -314 0 -58 -11 -89 -47 -136 l-27 -36
-19 51 c-18 50 -71 101 -104 101 -7 0 -19 15 -27 33 -13 31 -13 33 29 77 23
25 49 56 59 70 23 35 21 111 -5 144 -23 29 -15 34 19 10z m1332 -25 c80 -13
156 -53 177 -93 24 -47 12 -149 -27 -226 l-31 -62 -28 44 c-31 49 -76 90 -119
109 -18 8 -34 25 -41 46 -33 91 -134 97 -274 16 -83 -48 -135 -91 -143 -117
-8 -25 -64 -92 -64 -76 0 6 14 39 31 73 48 93 167 197 227 197 10 0 27 6 38
14 17 13 17 18 6 36 -7 12 -12 23 -10 25 3 4 134 21 173 24 11 0 49 -4 85 -10z
m-1435 -11 c40 -18 30 -54 -33 -121 -34 -35 -40 -37 -78 -31 -85 12 -182 -63
-230 -180 -16 -38 -27 -49 -66 -66 -65 -28 -67 -27 -57 21 36 157 137 288 271
348 90 41 148 50 193 29z m896 -159 c-23 -30 -53 -83 -68 -119 -23 -55 -27
-80 -27 -162 -1 -107 -11 -114 -49 -29 -37 84 1 190 111 303 36 38 67 66 69
64 2 -2 -14 -28 -36 -57z m383 -107 c9 -14 -41 -108 -80 -152 -46 -51 -100
-79 -163 -87 -58 -7 -91 8 -91 42 0 28 84 123 137 156 56 35 184 61 197 41z
m-1374 -125 c-23 -49 -102 -129 -146 -149 -23 -11 -28 -10 -40 7 -15 20 -17
59 -6 86 4 9 48 44 99 78 51 34 96 67 100 74 19 29 12 -55 -7 -96z m1513 71
c46 -41 68 -113 47 -152 -22 -43 -120 -112 -185 -131 -33 -10 -103 -20 -156
-23 -80 -4 -109 -1 -167 17 -62 18 -71 25 -81 53 -14 39 -6 49 16 19 23 -33
73 -51 145 -51 69 0 124 20 184 67 43 33 130 160 139 203 4 17 10 30 14 30 4
0 24 -15 44 -32z m-1370 -99 c2 -30 -4 -37 -47 -66 -26 -18 -51 -33 -55 -33
-4 0 7 30 26 66 18 37 33 76 33 87 l0 21 21 -20 c12 -12 21 -36 22 -55z m-423
-87 c0 -10 7 -28 16 -40 15 -21 14 -22 -14 -22 -29 0 -82 33 -82 51 0 12 61
39 72 33 5 -3 8 -13 8 -22z"/>
<path d="M6839 11648 c-18 -29 -90 -134 -158 -233 -245 -353 -569 -867 -747
-1185 -31 -54 -81 -54 -149 0 -21 16 -48 30 -61 30 -21 0 -24 -5 -24 -39 0
-32 6 -44 33 -67 17 -15 51 -36 75 -46 23 -10 42 -21 42 -23 0 -3 -48 -91
-107 -197 -105 -189 -152 -288 -153 -319 0 -21 27 -56 36 -46 4 4 9 24 11 45
3 41 76 198 183 393 l69 125 35 -4 c63 -7 328 44 483 93 19 6 11 -13 -48 -121
-171 -312 -241 -500 -192 -518 24 -10 36 7 38 56 2 55 65 203 165 388 129 239
119 225 164 239 63 19 239 103 254 120 16 20 15 66 -2 80 -25 21 -61 14 -125
-23 -35 -20 -65 -35 -67 -33 -7 6 308 483 335 507 27 24 61 79 61 99 0 13 211
318 317 457 56 75 86 123 90 148 5 31 3 36 -14 36 -24 0 -53 -30 -53 -56 0
-10 -18 -44 -40 -74 -21 -30 -65 -93 -97 -140 -33 -47 -94 -135 -136 -197
l-78 -112 -35 24 c-34 23 -111 45 -158 45 -13 0 -43 9 -67 20 -52 23 -116 26
-164 6 -65 -27 -71 -77 -21 -163 42 -71 58 -86 121 -114 41 -18 61 -21 122
-16 40 3 71 2 69 -1 -161 -243 -259 -394 -291 -443 -38 -60 -43 -64 -110 -86
-156 -53 -477 -125 -491 -110 -6 5 251 440 392 662 143 226 238 368 378 565
137 191 186 263 186 272 0 4 -9 8 -19 8 -12 0 -31 -19 -52 -52z m-175 -1143
c-9 -14 -18 -25 -21 -25 -5 0 5 18 20 38 17 22 18 13 1 -13z m-79 -125 c-9
-16 -18 -30 -21 -30 -2 0 2 14 11 30 9 17 18 30 21 30 2 0 -2 -13 -11 -30z
m-160 -264 c-36 -62 -43 -59 -8 3 15 28 29 48 31 46 2 -2 -8 -24 -23 -49z
m-47 -81 c-6 -14 -13 -23 -15 -21 -5 5 15 46 22 46 3 0 -1 -11 -7 -25z"/>
<path d="M6162 11453 c-71 -115 -153 -248 -182 -298 -100 -168 -210 -357 -210
-360 0 -2 -21 -39 -47 -82 -99 -166 -312 -590 -367 -729 -37 -94 -43 -128 -26
-154 13 -21 24 -5 39 55 58 235 493 1041 904 1678 31 48 57 90 57 92 0 3 -9 5
-19 5 -14 0 -53 -55 -149 -207z"/>
<path d="M5778 11623 c-13 -16 -38 -46 -54 -68 -16 -22 -32 -44 -37 -50 -83
-109 -222 -310 -294 -425 -40 -64 -67 -95 -110 -126 -73 -52 -84 -73 -81 -151
2 -33 0 -60 -3 -57 -9 5 -114 -232 -139 -314 -22 -72 -21 -127 2 -120 7 3 17
26 23 54 14 63 58 178 106 277 l38 78 16 -25 c9 -13 24 -28 33 -32 23 -10 162
-12 162 -2 0 4 18 17 41 29 62 31 126 95 145 145 16 41 16 47 0 88 -13 33 -26
49 -54 62 -47 23 -117 24 -161 1 -19 -9 -36 -16 -38 -14 -5 6 258 395 365 540
75 101 97 137 84 137 -10 0 -30 -12 -44 -27z m-246 -748 c0 -5 -5 -11 -11 -13
-6 -2 -11 4 -11 13 0 9 5 15 11 13 6 -2 11 -8 11 -13z m-228 -90 c3 -8 1 -15
-4 -15 -6 0 -10 7 -10 15 0 8 2 15 4 15 2 0 6 -7 10 -15z"/>
<path d="M7581 11023 c-28 -58 -88 -148 -326 -488 -100 -143 -268 -388 -373
-545 -105 -157 -222 -331 -261 -388 -39 -57 -71 -109 -71 -116 0 -8 6 -19 14
-25 12 -10 25 4 73 77 72 110 548 809 725 1067 264 383 304 454 258 463 -10 2
-24 -15 -39 -45z m-492 -778 c-12 -19 -26 -38 -33 -42 -8 -5 -8 -3 0 8 5 8 18
26 27 42 25 40 30 33 6 -8z m-57 -87 c-7 -7 -12 -8 -12 -2 0 14 12 26 19 19 2
-3 -1 -11 -7 -17z m-102 -148 c-44 -66 -83 -120 -85 -120 -3 0 31 54 75 120
44 66 83 120 85 120 3 0 -31 -54 -75 -120z m-170 -250 c-44 -66 -83 -120 -85
-120 -3 0 31 54 75 120 44 66 83 120 85 120 3 0 -31 -54 -75 -120z m-90 -134
c0 -2 -8 -10 -17 -17 -16 -13 -17 -12 -4 4 13 16 21 21 21 13z"/>
<path d="M10750 9304 c-317 -39 -513 -111 -686 -251 -77 -63 -144 -155 -144
-199 0 -50 22 -43 73 24 177 229 415 337 802 363 453 30 878 -115 1182 -404
200 -190 319 -401 368 -651 24 -126 17 -351 -15 -451 -29 -89 -81 -194 -135
-270 -58 -82 -227 -243 -302 -288 -303 -184 -753 -289 -1058 -248 -251 35
-485 122 -635 237 -68 52 -165 152 -213 221 -44 61 -44 62 36 185 175 272 581
751 945 1117 167 168 183 187 180 215 -5 49 -38 47 -79 -6 -19 -24 -113 -127
-210 -230 -200 -211 -586 -658 -725 -838 -72 -94 -189 -260 -206 -294 l-15
-28 -11 28 c-96 254 -133 759 -71 974 21 70 43 112 66 121 30 11 29 34 -1 54
-34 22 -60 7 -90 -53 -85 -170 -92 -567 -16 -936 18 -88 63 -219 81 -240 5 -6
9 -23 9 -38 0 -16 6 -31 14 -34 8 -3 37 -36 65 -74 134 -179 344 -318 606
-399 153 -47 270 -64 435 -63 352 1 717 109 975 288 154 106 310 294 391 470
117 252 95 634 -53 921 -65 126 -124 205 -248 329 -127 127 -255 217 -421 295
-241 113 -400 149 -669 154 -104 2 -206 1 -225 -1z"/>
<path d="M10483 8988 c-59 -57 -132 -130 -163 -163 -197 -212 -450 -610 -450
-706 0 -42 30 -78 47 -57 6 7 13 31 16 53 10 62 68 171 188 347 155 231 271
364 447 517 54 47 72 69 70 85 -2 13 -11 22 -25 24 -17 2 -49 -23 -130 -100z"/>
<path d="M1615 8673 c-22 -1 -76 -8 -120 -14 -388 -51 -609 -263 -711 -683
-66 -274 5 -580 193 -830 60 -79 193 -216 266 -273 174 -135 475 -198 689
-144 303 78 605 395 697 732 37 134 52 386 31 534 -16 110 -108 280 -136 252
-3 -3 11 -47 31 -98 54 -139 64 -300 34 -547 -42 -348 -313 -690 -634 -797
-185 -62 -437 -33 -613 72 -105 62 -248 206 -349 349 -38 55 -100 187 -127
271 -58 187 -57 372 4 554 140 419 397 573 928 556 155 -4 272 -20 272 -35 0
-22 -61 -105 -285 -387 -439 -553 -560 -731 -553 -818 3 -46 27 -68 52 -48 12
10 13 17 4 31 -15 24 7 83 78 201 85 140 331 460 612 794 46 55 100 126 119
158 20 31 43 57 52 57 29 0 178 -57 235 -89 84 -49 153 -116 202 -200 56 -96
74 -119 99 -123 29 -4 23 26 -25 124 -51 103 -94 156 -173 212 -81 57 -128 80
-245 120 -171 58 -423 86 -627 69z"/>
<path d="M1554 8442 c-68 -50 -128 -123 -247 -302 -144 -218 -192 -309 -183
-344 8 -32 36 -34 44 -3 11 44 84 172 184 321 118 178 174 246 241 294 45 33
48 37 31 49 -24 17 -25 17 -70 -15z"/>
<path d="M11183 8378 c-24 -11 -225 -236 -351 -393 -282 -348 -348 -444 -354
-515 -4 -44 23 -53 41 -13 29 64 168 259 278 390 180 214 391 451 424 475 27
20 40 58 20 58 -5 0 -15 2 -23 4 -7 3 -23 0 -35 -6z"/>
<path d="M2397 8328 c-8 -13 -23 -39 -34 -59 -11 -19 -78 -109 -150 -200 -315
-400 -564 -751 -655 -926 -44 -82 -51 -143 -18 -143 13 0 20 7 20 19 0 95 373
641 724 1059 75 90 145 180 156 202 18 35 18 40 4 54 -21 22 -31 20 -47 -6z"/>
<path d="M11600 7959 c-43 -73 -100 -143 -239 -293 -188 -203 -364 -439 -359
-480 4 -32 9 -29 94 70 145 169 283 323 391 441 112 121 213 261 213 296 0 14
-34 37 -55 37 -2 0 -23 -32 -45 -71z"/>
<path d="M2266 7628 c-63 -78 -232 -281 -357 -428 -171 -203 -241 -317 -223
-363 12 -32 32 -17 62 46 36 77 114 181 266 357 65 74 156 182 204 240 48 58
101 118 118 135 36 35 34 55 -6 55 -22 0 -38 -10 -64 -42z"/>
<path d="M321 6494 c0 -11 3 -14 6 -6 3 7 2 16 -1 19 -3 4 -6 -2 -5 -13z"/>
<path d="M6045 5310 c-3 -5 1 -10 10 -10 9 0 13 5 10 10 -3 6 -8 10 -10 10 -2
0 -7 -4 -10 -10z"/>
<path d="M35 3110 c3 -5 8 -10 11 -10 2 0 4 5 4 10 0 6 -5 10 -11 10 -5 0 -7
-4 -4 -10z"/>
<path d="M61 3104 c0 -11 3 -14 6 -6 3 7 2 16 -1 19 -3 4 -6 -2 -5 -13z"/>
<path d="M4437 2417 c-8 -7 -21 -39 -27 -72 -13 -64 -35 -149 -125 -480 -100
-372 -117 -430 -124 -438 -4 -4 -15 19 -25 50 -81 262 -284 665 -340 675 -48
9 -51 -3 -28 -99 22 -92 37 -206 47 -358 16 -226 57 -510 80 -556 11 -20 23
-29 41 -29 30 0 38 18 25 52 -9 25 -22 127 -62 502 -11 109 -23 206 -26 215
-4 11 -3 13 5 6 18 -17 132 -294 179 -435 25 -74 54 -147 64 -162 26 -36 59
-46 76 -22 20 27 89 246 133 419 21 82 56 218 78 300 22 83 44 164 48 180 l7
30 8 -40 c76 -396 99 -564 99 -739 0 -115 3 -137 18 -156 14 -17 25 -21 44
-17 24 6 25 10 32 108 8 132 -10 289 -80 684 -30 170 -57 319 -60 331 -11 41
-61 71 -87 51z"/>
<path d="M11955 2300 c-3 -5 -1 -10 4 -10 6 0 11 5 11 10 0 6 -2 10 -4 10 -3
0 -8 -4 -11 -10z"/>
<path d="M5847 2263 c-4 -3 -7 -23 -7 -43 0 -23 -7 -43 -17 -51 -27 -23 -53
-91 -53 -140 0 -51 21 -79 58 -79 21 0 22 -4 22 -98 0 -55 3 -134 7 -177 4
-54 3 -76 -4 -72 -19 12 -24 -25 -7 -50 12 -19 18 -69 25 -221 7 -167 11 -198
26 -213 14 -13 24 -15 42 -8 l24 9 -6 180 c-3 99 -3 180 -1 180 2 0 61 -35
131 -77 77 -47 148 -99 179 -130 51 -54 81 -65 104 -39 9 12 8 22 -5 50 -22
47 -62 81 -176 151 -52 32 -95 58 -96 59 -1 1 20 19 48 39 59 45 163 173 201
249 36 70 61 172 55 219 -13 96 -73 165 -195 222 -62 29 -76 32 -175 33 -59 1
-110 4 -114 8 -8 8 -58 8 -66 -1z m280 -88 c74 -22 144 -73 171 -126 19 -36
22 -54 18 -99 -11 -120 -155 -329 -262 -381 -42 -20 -49 -20 -76 -8 l-30 15
-6 129 c-4 72 -7 204 -7 295 l0 164 25 13 c34 17 105 16 167 -2z"/>
<path d="M6585 2236 c-43 -17 -66 -40 -96 -102 -17 -36 -19 -49 -10 -105 5
-35 13 -104 16 -154 13 -209 25 -452 25 -509 l0 -63 -30 5 c-25 4 -30 0 -36
-23 -8 -33 12 -72 47 -90 22 -12 27 -23 31 -65 4 -34 12 -59 26 -72 20 -20 22
-20 46 -4 23 15 25 21 19 61 l-6 45 74 0 c140 0 251 56 300 152 37 73 17 140
-68 220 -57 53 -91 72 -156 89 -26 6 -47 12 -47 13 0 2 21 25 46 52 91 98 157
220 170 312 16 124 -100 239 -251 249 -37 2 -75 -2 -100 -11z m184 -92 c78
-39 100 -107 66 -203 -21 -60 -104 -176 -178 -249 l-64 -63 -8 148 c-16 306
-16 326 1 351 32 48 105 55 183 16z m16 -613 c66 -30 125 -90 132 -134 5 -34
2 -42 -28 -73 -58 -60 -103 -78 -196 -79 -45 0 -83 2 -86 5 -3 3 -6 66 -8 140
l-4 135 35 12 c51 17 109 15 155 -6z m-223 -236 c2 -19 0 -35 -4 -35 -4 0 -8
16 -8 35 0 19 2 35 4 35 2 0 6 -16 8 -35z"/>
<path d="M7243 2229 c-36 -36 76 -112 212 -144 36 -8 162 -19 282 -25 149 -6
241 -15 290 -28 82 -21 113 -15 113 21 0 26 -20 38 -100 63 -27 9 -148 20
-310 28 -275 15 -297 19 -398 70 -57 29 -73 31 -89 15z"/>
<path d="M7662 2028 c-16 -16 -17 -636 -1 -758 13 -104 38 -153 78 -148 31 4
32 19 11 173 -15 108 -19 553 -7 662 8 67 13 61 -53 79 -9 2 -21 -1 -28 -8z"/>
<path d="M8467 1820 c-86 -22 -170 -83 -209 -151 l-22 -39 -30 29 c-17 16 -44
35 -60 41 -42 15 -63 -9 -136 -153 l-61 -120 2 64 c1 35 6 77 10 92 14 49 -50
90 -81 52 -19 -23 -21 -105 -9 -300 15 -224 29 -260 87 -219 15 10 22 25 22
49 0 49 27 171 52 235 16 43 90 191 104 208 1 2 18 -14 38 -35 32 -34 35 -44
36 -94 0 -136 44 -299 108 -399 86 -138 174 -180 302 -144 62 17 188 92 224
132 26 30 37 28 85 -12 69 -57 169 -85 358 -99 54 -4 72 5 86 44 9 28 -49 47
-176 58 -192 17 -293 77 -222 132 13 11 34 38 46 59 13 22 26 40 30 40 12 0
50 100 55 148 10 89 -51 179 -137 202 -33 9 -45 8 -65 -5 -37 -24 -82 -92 -99
-148 -21 -71 -19 -209 4 -275 l18 -53 -44 -38 c-105 -89 -212 -131 -285 -111
-58 17 -108 84 -150 205 -24 67 -54 222 -46 231 3 2 20 -8 39 -22 155 -116
301 -119 399 -8 76 87 106 217 66 292 -20 39 -85 88 -135 102 -55 15 -161 20
-204 10z m181 -85 c64 -19 92 -53 92 -110 0 -74 -49 -159 -111 -190 -41 -22
-113 -19 -162 6 -45 23 -65 38 -123 88 l-36 32 17 45 c21 56 74 99 150 124 74
23 107 24 173 5z m346 -207 c10 -14 16 -44 16 -79 0 -48 -5 -64 -41 -120 -23
-35 -48 -72 -57 -82 -16 -18 -17 -18 -23 0 -13 32 -10 158 5 207 28 92 67 121
100 74z"/>
<path d="M4750 1765 c-10 -12 -11 -47 -7 -138 6 -132 33 -249 89 -392 38 -97
61 -127 92 -116 20 8 21 14 21 182 0 110 5 194 14 227 12 48 15 53 35 47 35
-12 110 -16 124 -7 7 5 10 16 7 24 -8 21 -134 78 -173 78 -48 0 -57 -18 -90
-200 l-9 -45 -14 60 c-7 33 -14 109 -14 168 0 85 -3 110 -15 117 -22 14 -46
12 -60 -5z"/>
<path d="M5320 1220 c0 -31 37 -62 63 -54 38 11 51 29 38 53 -9 17 -21 21 -56
21 -38 0 -45 -3 -45 -20z"/>
</g>
</svg>
