<?xml version="1.0" standalone="no"?>
<!DOCTYPE svg PUBLIC "-//W3C//DTD SVG 20010904//EN"
 "http://www.w3.org/TR/2001/REC-SVG-20010904/DTD/svg10.dtd">
<svg version="1.0" xmlns="http://www.w3.org/2000/svg"
 width="1200.000000pt" height="1200.000000pt" viewBox="0 0 1200.000000 1200.000000"
 preserveAspectRatio="xMidYMid meet">

<g transform="translate(0.000000,1200.000000) scale(0.100000,-0.100000)"
fill="#000000" stroke="none">
<path d="M5651 10219 c-63 -12 -119 -53 -142 -102 -24 -53 -24 -91 1 -144 23
-52 57 -74 177 -114 132 -44 172 -93 135 -168 -34 -69 -123 -88 -229 -51 -31
11 -59 17 -63 15 -5 -3 -13 -18 -18 -35 -13 -35 -8 -39 77 -64 203 -60 382 67
332 236 -22 71 -64 105 -180 143 -57 19 -113 43 -124 52 -30 28 -40 62 -26 95
23 56 97 76 194 53 37 -8 69 -14 70 -13 1 2 7 17 13 35 10 29 8 32 -16 42 -24
10 -139 33 -152 30 -3 -1 -25 -5 -49 -10z"/>
<path d="M6726 10163 c-2 -10 -7 -28 -11 -40 -5 -20 0 -23 76 -40 45 -10 83
-22 85 -28 2 -5 -25 -134 -60 -285 l-63 -275 40 -12 c22 -7 43 -11 45 -8 2 2
33 129 68 281 34 152 65 278 67 280 2 3 42 -4 88 -15 46 -11 85 -19 86 -17 1
1 5 20 9 42 l6 40 -209 47 c-114 26 -211 47 -215 47 -4 0 -9 -8 -12 -17z"/>
<path d="M5035 10108 c-16 -6 -31 -12 -33 -13 -2 -2 34 -148 79 -325 l82 -322
36 7 c20 4 39 10 43 13 10 10 -155 652 -167 651 -5 0 -23 -5 -40 -11z"/>
<path d="M7435 9719 c-60 -127 -124 -262 -142 -300 l-32 -69 40 -20 40 -21 61
131 c34 71 66 130 72 130 18 0 306 -143 306 -152 0 -5 -16 -40 -35 -78 -19
-39 -46 -95 -60 -125 l-24 -55 40 -20 40 -21 43 93 c24 51 89 187 145 302 55
115 101 210 101 211 0 5 -80 38 -83 34 -2 -2 -30 -59 -62 -126 -32 -68 -63
-123 -67 -123 -5 0 -76 32 -159 72 -173 82 -164 58 -83 220 30 59 54 110 54
113 0 7 -65 35 -77 35 -4 -1 -57 -104 -118 -231z"/>
<path d="M3847 9591 c-15 -10 -30 -21 -33 -24 -6 -6 321 -563 335 -571 5 -4
345 190 370 210 3 3 -38 74 -44 74 -2 0 -60 -34 -130 -75 -70 -41 -135 -80
-145 -85 -15 -8 -37 22 -166 240 -82 137 -151 249 -154 249 -3 0 -17 -8 -33
-18z"/>
<path d="M8211 9220 c-111 -137 -203 -255 -206 -262 -2 -8 50 -56 122 -113 70
-55 148 -117 174 -137 l47 -38 26 35 27 34 -141 112 -140 112 33 41 c18 23 46
58 63 78 16 21 32 38 36 38 3 0 56 -40 116 -90 61 -49 115 -90 121 -90 10 0
51 47 51 59 0 3 -52 47 -115 96 -63 50 -114 94 -115 98 0 5 27 42 61 83 41 51
65 72 72 66 7 -5 68 -53 136 -108 l124 -98 23 29 c13 17 24 33 24 37 0 7 -324
268 -333 268 -3 0 -95 -112 -206 -250z"/>
<path d="M3314 9175 c-82 -76 -155 -143 -161 -149 -10 -9 42 -70 216 -258
l229 -247 165 152 165 152 -30 32 -31 32 -130 -121 -129 -120 -50 48 c-27 27
-59 62 -71 78 l-20 29 34 30 c19 17 70 64 113 104 l80 74 -31 31 -31 31 -110
-103 c-61 -56 -113 -102 -117 -102 -3 1 -36 33 -73 73 l-66 71 44 41 c25 23
82 75 127 117 l82 77 -28 33 -28 33 -149 -138z"/>
<path d="M8805 8694 c-137 -113 -253 -209 -258 -213 -10 -10 147 -197 186
-222 80 -49 157 -45 222 12 41 36 59 86 52 145 l-4 43 42 -6 c81 -11 175 56
191 134 11 54 -21 123 -102 221 -41 51 -76 92 -77 92 -1 0 -114 -93 -252 -206z
m294 19 c60 -82 52 -136 -25 -174 -41 -19 -45 -19 -77 -4 -28 13 -96 87 -101
109 -2 10 137 125 151 125 7 1 30 -24 52 -56z m-184 -257 c22 -51 19 -74 -14
-107 -23 -22 -39 -29 -69 -29 -45 0 -72 18 -131 89 l-41 49 81 66 81 66 39
-49 c22 -27 46 -65 54 -85z"/>
<path d="M2825 8633 c8 -21 55 -139 103 -263 l88 -225 -29 -6 c-16 -4 -139
-10 -273 -14 -134 -4 -246 -11 -249 -15 -2 -4 123 -89 278 -189 l282 -183 22
29 c13 15 23 33 23 38 -1 6 -78 60 -172 120 l-172 110 115 8 c62 4 155 10 205
13 l92 6 -78 194 c-43 107 -76 194 -73 194 2 0 81 -50 175 -111 94 -60 176
-108 182 -106 6 3 19 18 28 35 l18 30 -278 179 c-152 99 -283 183 -290 187 -9
6 -9 -2 3 -31z"/>
<path d="M9255 8079 c-160 -83 -292 -153 -295 -156 -7 -7 192 -393 203 -393
14 0 67 30 67 38 0 4 -36 76 -79 160 l-79 152 83 45 c45 25 87 45 93 45 6 0
41 -58 78 -130 37 -71 72 -130 76 -130 13 0 68 30 68 37 0 3 -31 65 -69 137
l-69 131 89 49 c50 26 92 46 93 44 2 -1 35 -66 75 -143 40 -77 77 -144 82
-150 6 -6 22 -3 44 9 l35 19 -96 186 c-53 102 -99 189 -103 193 -3 4 -137 -61
-296 -143z"/>
<path d="M2512 7490 c-183 -15 -334 -29 -336 -31 -2 -2 125 -116 282 -253
l286 -248 14 42 14 42 -48 42 c-27 22 -59 50 -73 62 l-24 20 40 120 c45 135
40 131 164 133 l65 1 16 50 16 50 -41 -1 c-23 -1 -192 -14 -375 -29z m108 -87
c0 -16 -55 -173 -60 -173 -12 0 -189 154 -184 159 3 3 51 9 107 12 56 3 110 6
120 7 9 1 17 -1 17 -5z"/>
<path d="M9745 7423 c-89 -22 -128 -76 -145 -203 -14 -111 -26 -145 -57 -170
-31 -24 -90 -26 -122 -4 -51 36 -76 148 -51 233 5 19 9 36 7 37 -1 1 -19 4
-39 8 -36 7 -37 6 -47 -31 -29 -105 -3 -230 62 -297 66 -69 139 -80 229 -35
66 33 82 71 107 244 13 89 35 119 89 123 35 3 46 -1 67 -24 33 -36 49 -97 41
-166 l-6 -57 36 -7 c19 -3 37 -5 39 -2 12 12 16 121 6 170 -26 121 -123 203
-216 181z"/>
<path d="M2066 6788 c-38 -58 -50 -104 -50 -193 -1 -79 2 -97 27 -147 33 -67
90 -121 166 -157 48 -22 69 -26 151 -26 84 0 102 3 152 28 133 65 211 228 178
374 -21 94 -27 103 -64 91 -47 -16 -50 -22 -31 -72 49 -129 -25 -282 -157
-321 -64 -19 -91 -19 -155 0 -157 47 -228 207 -154 348 l29 56 -34 20 c-43 26
-40 26 -58 -1z"/>
<path d="M9986 6642 l7 -89 -54 -6 c-30 -3 -161 -14 -291 -23 l-238 -18 0 -31
c0 -62 -10 -61 301 -37 155 13 284 20 287 18 2 -3 7 -43 11 -88 l6 -83 39 2
c22 2 41 5 43 7 2 2 -3 91 -11 198 -9 107 -16 204 -16 216 0 19 -5 22 -45 22
l-45 0 6 -88z"/>
<path d="M3530 5956 l0 -616 75 0 75 0 2 373 3 372 213 -297 c117 -164 215
-298 216 -298 2 0 100 137 217 305 118 167 217 305 222 305 4 0 7 -171 7 -380
l0 -380 75 0 75 0 0 610 c0 336 -2 610 -4 610 -2 0 -136 -185 -297 -410 -161
-226 -295 -407 -299 -403 -4 4 -136 192 -294 417 l-286 408 0 -616z"/>
<path d="M7430 5955 l0 -615 81 0 81 0 -3 420 c-3 231 -2 420 2 420 3 0 198
-197 433 -437 235 -241 432 -440 437 -441 6 -2 8 239 7 615 l-3 618 -77 3
c-59 2 -78 0 -78 -10 -1 -7 0 -201 0 -431 0 -262 -3 -418 -9 -415 -5 1 -201
202 -436 446 -235 243 -428 442 -431 442 -2 0 -4 -277 -4 -615z"/>
<path d="M4951 6518 c7 -13 106 -193 221 -401 l208 -379 0 -199 0 -199 80 0
80 0 0 197 0 196 220 395 c121 217 220 398 220 403 0 5 -42 9 -93 9 l-94 0
-159 -302 c-88 -167 -163 -303 -168 -303 -5 0 -81 136 -170 303 l-160 302 -98
0 -99 0 12 -22z"/>
<path d="M6202 6093 c3 -443 3 -449 26 -506 34 -84 116 -168 208 -214 68 -33
84 -37 177 -41 115 -5 184 9 270 56 91 49 172 159 197 264 5 25 10 223 10 466
l0 422 -74 0 -75 0 -3 -422 c-3 -405 -4 -425 -24 -468 -11 -25 -33 -59 -48
-77 -64 -75 -212 -113 -314 -79 -61 20 -135 83 -165 140 -22 40 -22 49 -25
474 l-3 432 -80 0 -80 0 3 -447z"/>
<path d="M2223 5780 c-84 -17 -158 -73 -199 -150 -29 -54 -26 -191 4 -247 12
-24 27 -43 32 -43 15 0 61 23 57 29 -38 67 -49 108 -44 159 10 98 77 164 180
178 89 12 181 -38 218 -121 23 -49 24 -89 4 -145 -8 -24 -14 -44 -13 -45 2 -1
18 -7 35 -13 l33 -11 16 56 c20 69 14 153 -14 209 -55 106 -188 168 -309 144z"/>
<path d="M9516 5688 c-3 -51 -9 -130 -12 -175 l-7 -82 34 -5 c19 -3 111 -10
204 -16 94 -6 202 -13 241 -16 l71 -6 7 108 c3 60 9 144 13 187 l6 77 -36 0
-35 0 -6 -67 c-3 -38 -9 -103 -12 -145 l-6 -78 -38 0 c-20 0 -58 3 -84 6 l-47
7 6 71 c3 39 8 94 11 122 l5 52 -33 5 c-18 2 -35 3 -37 1 -3 -2 -19 -183 -20
-234 -1 -12 -14 -14 -80 -10 -44 3 -81 7 -83 10 -3 3 -1 46 3 95 4 50 8 111 8
138 1 47 1 47 -33 47 l-33 0 -7 -92z"/>
<path d="M9467 5193 c-2 -5 -21 -77 -42 -162 -29 -118 -42 -155 -56 -158 -17
-5 -33 -53 -21 -64 4 -4 19 -9 34 -13 44 -10 62 18 94 148 15 64 31 116 34
115 3 0 86 -91 185 -202 99 -110 185 -202 190 -204 10 -3 122 424 114 431 -2
2 -18 7 -34 10 l-30 7 -40 -162 -41 -163 -188 212 c-103 117 -190 212 -192
212 -1 0 -5 -3 -7 -7z"/>
<path d="M2320 5121 c-80 -26 -142 -82 -178 -160 -33 -72 -28 -176 11 -244
128 -218 443 -181 513 60 50 173 -72 340 -256 349 -36 2 -76 0 -90 -5z m182
-92 c42 -21 80 -68 97 -118 42 -127 -62 -261 -204 -261 -127 0 -215 96 -203
222 14 144 174 225 310 157z"/>
<path d="M2580 4335 c-129 -68 -239 -125 -244 -127 -7 -3 19 -68 27 -68 1 0
79 40 172 89 94 49 171 88 172 87 2 -1 -31 -103 -72 -227 -42 -123 -82 -245
-90 -271 l-14 -47 228 117 c289 149 276 140 260 175 -7 15 -16 27 -21 27 -5 0
-83 -38 -172 -85 -90 -47 -165 -85 -169 -85 -3 0 35 120 84 267 49 147 89 269
89 270 0 8 -34 -9 -250 -122z"/>
<path d="M9434 4060 l-32 -61 28 -14 28 -14 32 60 c31 58 31 61 13 74 -29 23
-36 18 -69 -45z"/>
<path d="M2997 3595 c-81 -148 -146 -270 -144 -271 5 -6 587 159 587 165 -1 3
-11 19 -24 35 l-24 29 -198 -62 c-108 -34 -198 -60 -199 -59 -2 2 29 59 69
128 40 69 86 150 104 181 l31 55 -27 34 -28 33 -147 -268z"/>
<path d="M8682 3579 c-62 -71 -112 -133 -112 -137 0 -9 396 -352 407 -352 10
0 233 257 233 268 0 5 -10 18 -22 29 l-23 21 -94 -109 c-51 -60 -96 -109 -100
-109 -3 0 -33 24 -66 53 l-59 54 81 95 82 95 -22 22 c-13 11 -26 21 -29 21 -3
0 -40 -40 -82 -90 -43 -49 -81 -90 -86 -90 -10 0 -120 92 -120 100 0 5 98 123
167 201 13 15 11 19 -15 37 l-29 21 -111 -130z"/>
<path d="M3411 3144 c-95 -108 -174 -202 -175 -208 0 -7 58 -64 129 -128 l130
-116 23 21 c12 11 22 24 22 28 0 4 -47 49 -105 100 -58 51 -105 95 -105 98 1
3 25 33 55 65 l54 60 66 -60 c37 -32 81 -70 97 -83 l30 -24 19 24 c10 13 19
26 19 29 0 3 -41 40 -90 84 -50 43 -90 81 -90 85 1 3 25 32 54 64 l53 59 103
-91 c56 -50 106 -91 110 -91 11 0 42 38 39 48 -4 9 -254 232 -260 232 -2 0
-82 -88 -178 -196z"/>
<path d="M8362 3244 c-12 -8 -22 -20 -22 -25 0 -6 32 -49 70 -97 58 -69 68
-88 58 -98 -26 -25 -203 -164 -210 -164 -3 0 -39 41 -78 91 l-73 90 -23 -22
c-13 -12 -24 -26 -24 -31 0 -11 330 -418 339 -418 3 1 17 10 30 20 16 14 20
24 14 33 -5 6 -38 47 -72 90 -34 42 -61 81 -59 86 3 9 73 68 174 148 l41 32
72 -89 c39 -50 75 -90 80 -90 5 0 19 8 32 19 18 14 21 22 13 32 -118 148 -327
405 -333 407 -3 1 -16 -5 -29 -14z"/>
<path d="M3900 2739 c-114 -193 -140 -243 -129 -250 49 -33 43 -38 146 135 54
91 99 163 102 161 2 -2 33 -127 70 -277 l67 -273 142 237 c78 130 142 241 142
247 0 6 -13 17 -28 25 l-28 15 -99 -166 c-80 -135 -100 -163 -107 -147 -4 10
-35 133 -67 273 -33 139 -62 255 -64 257 -2 2 -68 -104 -147 -237z"/>
<path d="M7755 2809 c-60 -33 -129 -72 -153 -85 l-42 -25 15 -29 c9 -17 17
-30 19 -30 2 0 31 15 64 34 l60 34 108 -197 c59 -108 111 -202 117 -208 7 -10
15 -9 38 3 16 8 29 17 29 20 0 3 -49 95 -110 204 -60 109 -110 204 -110 209 0
6 21 22 48 35 77 41 76 40 57 70 -10 14 -20 26 -24 26 -3 0 -55 -27 -116 -61z"/>
<path d="M4629 2612 c-13 -33 -6 -48 23 -55 13 -4 40 -13 60 -21 l36 -15 -84
-223 c-46 -123 -84 -224 -84 -225 0 -6 65 -22 70 -16 4 5 42 103 85 218 43
116 79 212 81 214 3 3 32 -5 67 -17 34 -12 65 -22 69 -22 3 0 11 14 17 30 9
28 8 32 -17 41 -15 6 -91 35 -170 64 l-143 53 -10 -26z"/>
<path d="M5186 2439 c-11 -29 -124 -514 -121 -517 1 -2 18 -5 36 -8 l34 -6 62
263 c34 145 61 265 59 266 -1 2 -17 6 -34 9 -22 5 -33 2 -36 -7z"/>
<path d="M6648 2405 c-2 -3 6 -85 19 -183 13 -97 22 -183 21 -190 -2 -8 -95
59 -223 161 -121 96 -221 174 -223 172 -3 -2 49 -421 64 -517 5 -34 9 -38 35
-38 17 0 32 6 35 15 3 8 -5 96 -18 195 -13 99 -23 180 -21 180 2 0 103 -78
225 -174 123 -96 223 -174 224 -173 1 1 -14 127 -34 280 l-36 277 -31 0 c-18
0 -34 -2 -37 -5z"/>
<path d="M5634 2354 c-54 -19 -118 -75 -152 -132 -24 -41 -27 -57 -27 -132 0
-102 19 -146 91 -209 136 -119 340 -81 429 81 26 45 30 64 30 128 0 65 -4 82
-31 130 -34 61 -105 121 -164 139 -50 15 -126 13 -176 -5z m208 -90 c118 -83
118 -270 0 -345 -58 -37 -104 -45 -161 -30 -191 51 -211 315 -31 396 55 24
141 15 192 -21z"/>
</g>
</svg>
